<?xml version="1.0" encoding="UTF-8" standalone="no"?>
<svg
   version="1.1"
   viewBox="0 0 282.53296 219.57602"
   fill="none"
   stroke="none"
   stroke-linecap="square"
   stroke-miterlimit="10"
   id="svg2868"
   width="282.53296"
   height="219.57602"
   xmlns="http://www.w3.org/2000/svg"
   xmlns:svg="http://www.w3.org/2000/svg">
  <defs
     id="defs2872" />
  <clipPath
     id="g1fdf626aaf9_0_0.0">
    <path
       d="M 0,0 H 960 V 540 H 0 Z"
       clip-rule="nonzero"
       id="path2628" />
  </clipPath>
  <g
     clip-path="url(#g1fdf626aaf9_0_0.0)"
     id="g2866"
     transform="translate(-338.73346,-270.00113)">
    <defs
       id="defs2669">
      <filter
         id="shadowFilter-g1fdf626aaf9_0_0.2"
         filterUnits="userSpaceOnUse">
        <feGaussianBlur
           in="SourceAlpha"
           stdDeviation="2.0"
           result="blur"
           id="feGaussianBlur2656" />
        <feComponentTransfer
           in="blur"
           color-interpolation-filters="sRGB"
           id="feComponentTransfer2666">
          <feFuncR
             type="linear"
             slope="0"
             intercept="0.0"
             id="feFuncR2658" />
          <feFuncG
             type="linear"
             slope="0"
             intercept="0.0"
             id="feFuncG2660" />
          <feFuncB
             type="linear"
             slope="0"
             intercept="0.0"
             id="feFuncB2662" />
          <feFuncA
             type="linear"
             slope="0.5"
             intercept="0"
             id="feFuncA2664" />
        </feComponentTransfer>
      </filter>
    </defs>
    <g
       id="g1fdf626aaf9_0_0.2">
      <path
         fill="#616161"
         d="m 476.0072,281.91632 c 54.9035,-0.003 101.74835,36.74506 110.72095,86.85583 8.97266,50.11082 -22.56158,98.87036 -74.53332,115.24658 -51.97172,16.37619 -109.12021,-4.43957 -135.07437,-49.19952 -25.9542,-44.75995 -13.09299,-100.32098 30.39834,-131.3223 l 9.24359,11.09894 c -38.11841,26.52759 -49.60855,74.38882 -27.14486,113.06961 22.46371,38.68082 72.26959,56.79642 117.66379,42.79715 45.39416,-13.99924 73.01599,-55.99301 65.255,-99.20801 -7.76093,-43.21503 -48.62036,-74.93201 -96.52829,-74.92969 z"
         fill-rule="evenodd"
         id="path2671" />
    </g>
    <defs
       id="defs2691">
      <filter
         id="shadowFilter-g1fdf626aaf9_0_0.3"
         filterUnits="userSpaceOnUse">
        <feGaussianBlur
           in="SourceAlpha"
           stdDeviation="2.0"
           result="blur"
           id="feGaussianBlur2678" />
        <feComponentTransfer
           in="blur"
           color-interpolation-filters="sRGB"
           id="feComponentTransfer2688">
          <feFuncR
             type="linear"
             slope="0"
             intercept="0.0"
             id="feFuncR2680" />
          <feFuncG
             type="linear"
             slope="0"
             intercept="0.0"
             id="feFuncG2682" />
          <feFuncB
             type="linear"
             slope="0"
             intercept="0.0"
             id="feFuncB2684" />
          <feFuncA
             type="linear"
             slope="0.5"
             intercept="0"
             id="feFuncA2686" />
        </feComponentTransfer>
      </filter>
    </defs>
    <g
       id="g1fdf626aaf9_0_0.3">
      <path
         fill="#616161"
         d="m 420.72116,300.77994 v 29.46759 l -31.85187,-29.46759 z"
         fill-rule="evenodd"
         id="path2693" />
    </g>
    <defs
       id="defs2713">
      <filter
         id="shadowFilter-g1fdf626aaf9_0_0.4"
         filterUnits="userSpaceOnUse">
        <feGaussianBlur
           in="SourceAlpha"
           stdDeviation="2.0"
           result="blur"
           id="feGaussianBlur2700" />
        <feComponentTransfer
           in="blur"
           color-interpolation-filters="sRGB"
           id="feComponentTransfer2710">
          <feFuncR
             type="linear"
             slope="0"
             intercept="0.0"
             id="feFuncR2702" />
          <feFuncG
             type="linear"
             slope="0"
             intercept="0.0"
             id="feFuncG2704" />
          <feFuncB
             type="linear"
             slope="0"
             intercept="0.0"
             id="feFuncB2706" />
          <feFuncA
             type="linear"
             slope="0.5"
             intercept="0"
             id="feFuncA2708" />
        </feComponentTransfer>
      </filter>
    </defs>
    <g
       id="g1fdf626aaf9_0_0.4">
      <path
         fill="#38761d"
         d="m 527.08923,400.69025 h 94.17719 v 60.13193 h -94.17719 z"
         fill-rule="evenodd"
         id="path2715" />
      <path
         fill="#ffffff"
         d="m 545.67993,417.6334 1.5,-5.28125 h 0.73438 l -0.42188,2.0625 -1.625,5.51562 h -0.71875 z m -1.5625,-5.28125 1.20313,5.1875 0.35937,2.39062 h -0.71875 l -1.84375,-7.57812 z m 5.73438,5.17187 1.17187,-5.17187 h 1 l -1.82812,7.57812 h -0.71875 z m -1.82813,-5.17187 1.45313,5.28125 0.53125,2.29687 h -0.71875 l -1.5625,-5.51562 -0.42188,-2.0625 z m 5.82935,2.82812 v 4.75 h -0.96875 v -5.625 h 0.9375 z m 1.75,-0.90625 v 0.89063 q -0.125,-0.0312 -0.23438,-0.0312 -0.10937,-0.0156 -0.23437,-0.0156 -0.32813,0 -0.59375,0.10938 -0.25,0.10937 -0.4375,0.29687 -0.17188,0.1875 -0.28125,0.45313 -0.0937,0.25 -0.125,0.54687 l -0.26563,0.15625 q 0,-0.5 0.0937,-0.95312 0.10938,-0.45313 0.3125,-0.79688 0.21875,-0.34375 0.54688,-0.53125 0.34375,-0.20312 0.79687,-0.20312 0.0937,0 0.23438,0.0312 0.14062,0.0156 0.1875,0.0469 z m 1.93914,0.0312 v 5.625 h -0.96875 v -5.625 z m -1.04687,-1.5 q 0,-0.23437 0.14062,-0.39062 0.15625,-0.17188 0.4375,-0.17188 0.26563,0 0.40625,0.17188 0.15625,0.15625 0.15625,0.39062 0,0.21875 -0.15625,0.39063 -0.14062,0.15625 -0.40625,0.15625 -0.28125,0 -0.4375,-0.15625 -0.14062,-0.17188 -0.14062,-0.39063 z m 4.95062,1.5 v 0.73438 h -3.04687 v -0.73438 z m -2.01562,-1.375 h 0.96875 v 5.60938 q 0,0.28125 0.0781,0.4375 0.0937,0.14062 0.23438,0.1875 0.14062,0.0469 0.29687,0.0469 0.125,0 0.25,-0.0156 0.14063,-0.0312 0.20313,-0.0469 v 0.78125 q -0.10938,0.0312 -0.29688,0.0625 -0.17187,0.0469 -0.4375,0.0469 -0.35937,0 -0.65625,-0.14063 -0.29687,-0.14062 -0.46875,-0.46875 -0.17187,-0.34375 -0.17187,-0.90625 z m 5.47052,7.10938 q -0.57813,0 -1.0625,-0.20313 -0.46875,-0.20312 -0.8125,-0.5625 -0.34375,-0.375 -0.53125,-0.875 -0.17188,-0.5 -0.17188,-1.09375 v -0.20312 q 0,-0.6875 0.20313,-1.21875 0.20312,-0.54688 0.54687,-0.92188 0.35938,-0.375 0.79688,-0.5625 0.4375,-0.20312 0.90625,-0.20312 0.60937,0 1.04687,0.21875 0.4375,0.20312 0.71875,0.57812 0.28125,0.35938 0.42188,0.875 0.14062,0.5 0.14062,1.09375 v 0.42188 h -4.20312 v -0.78125 h 3.23437 v -0.0781 q -0.0156,-0.375 -0.15625,-0.71875 -0.125,-0.35937 -0.42187,-0.57812 -0.28125,-0.23438 -0.78125,-0.23438 -0.3125,0 -0.59375,0.14063 -0.28125,0.125 -0.48438,0.40625 -0.1875,0.26562 -0.29687,0.65625 -0.10938,0.39062 -0.10938,0.90625 v 0.20312 q 0,0.40625 0.10938,0.76563 0.10937,0.34375 0.32812,0.60937 0.21875,0.26563 0.51563,0.42188 0.3125,0.14062 0.71875,0.14062 0.5,0 0.85937,-0.20312 0.35938,-0.20313 0.625,-0.5625 l 0.57813,0.46875 q -0.1875,0.28125 -0.46875,0.53125 -0.28125,0.25 -0.6875,0.40625 -0.40625,0.15625 -0.96875,0.15625 z m 8.21588,-0.79688 q 0.34375,0 0.625,-0.14062 0.29687,-0.14063 0.48437,-0.39063 0.1875,-0.25 0.21875,-0.5625 h 0.92188 q -0.0312,0.5 -0.34375,0.9375 -0.3125,0.42188 -0.8125,0.6875 -0.5,0.26563 -1.09375,0.26563 -0.625,0 -1.10938,-0.21875 -0.46875,-0.23438 -0.78125,-0.625 -0.29687,-0.39063 -0.45312,-0.89063 -0.15625,-0.51562 -0.15625,-1.07812 v -0.21875 q 0,-0.5625 0.15625,-1.0625 0.15625,-0.51563 0.45312,-0.90625 0.3125,-0.39063 0.78125,-0.60938 0.48438,-0.23437 1.10938,-0.23437 0.65625,0 1.15625,0.26562 0.5,0.26563 0.78125,0.73438 0.28125,0.45312 0.3125,1.04687 h -0.92188 q -0.0312,-0.35937 -0.20312,-0.64062 -0.15625,-0.28125 -0.45313,-0.4375 -0.28125,-0.17188 -0.67187,-0.17188 -0.4375,0 -0.73438,0.17188 -0.29687,0.17187 -0.48437,0.46875 -0.17188,0.29687 -0.25,0.65625 -0.0625,0.34375 -0.0625,0.71875 v 0.21875 q 0,0.35937 0.0625,0.71875 0.0781,0.35937 0.25,0.65625 0.17187,0.29687 0.46875,0.46875 0.3125,0.17187 0.75,0.17187 z m 3.07788,-2.0625 v -0.125 q 0,-0.60937 0.17187,-1.125 0.17188,-0.53125 0.5,-0.90625 0.34375,-0.39062 0.8125,-0.60937 0.48438,-0.21875 1.0625,-0.21875 0.59375,0 1.0625,0.21875 0.48438,0.21875 0.8125,0.60937 0.34375,0.375 0.51563,0.90625 0.1875,0.51563 0.1875,1.125 v 0.125 q 0,0.60938 -0.1875,1.125 -0.17188,0.51563 -0.51563,0.90625 -0.32812,0.39063 -0.79687,0.60938 -0.46875,0.21875 -1.0625,0.21875 -0.59375,0 -1.07813,-0.21875 -0.46875,-0.21875 -0.8125,-0.60938 -0.32812,-0.39062 -0.5,-0.90625 -0.17187,-0.51562 -0.17187,-1.125 z m 0.95312,-0.125 v 0.125 q 0,0.42188 0.0937,0.79688 0.10938,0.35937 0.3125,0.65625 0.20313,0.28125 0.5,0.45312 0.29688,0.15625 0.70313,0.15625 0.39062,0 0.6875,-0.15625 0.29687,-0.17187 0.5,-0.45312 0.20312,-0.29688 0.29687,-0.65625 0.10938,-0.375 0.10938,-0.79688 v -0.125 q 0,-0.40625 -0.10938,-0.78125 -0.0937,-0.375 -0.29687,-0.65625 -0.20313,-0.29687 -0.5,-0.45312 -0.29688,-0.17188 -0.70313,-0.17188 -0.39062,0 -0.6875,0.17188 -0.29687,0.15625 -0.5,0.45312 -0.20312,0.28125 -0.3125,0.65625 -0.0937,0.375 -0.0937,0.78125 z m 8.92115,1.78125 v -6.90625 h 0.96875 v 8 h -0.89063 z m -3.78125,-1.65625 v -0.10937 q 0,-0.64063 0.15625,-1.17188 0.15625,-0.53125 0.45312,-0.90625 0.29688,-0.39062 0.70313,-0.59375 0.40625,-0.20312 0.90625,-0.20312 0.53125,0 0.92187,0.1875 0.40625,0.1875 0.6875,0.54687 0.28125,0.34375 0.4375,0.84375 0.15625,0.48438 0.21875,1.10938 v 0.46875 q -0.0469,0.625 -0.21875,1.125 -0.15625,0.48437 -0.4375,0.84375 -0.28125,0.34375 -0.6875,0.53125 -0.39062,0.1875 -0.9375,0.1875 -0.48437,0 -0.89062,-0.21875 -0.40625,-0.21875 -0.70313,-0.59375 -0.29687,-0.39063 -0.45312,-0.90625 -0.15625,-0.53125 -0.15625,-1.14063 z m 0.96875,-0.10937 v 0.10937 q 0,0.42188 0.0781,0.79688 0.0937,0.35937 0.26563,0.64062 0.1875,0.28125 0.46875,0.4375 0.28125,0.15625 0.67187,0.15625 0.46875,0 0.78125,-0.20312 0.3125,-0.20313 0.5,-0.53125 0.1875,-0.32813 0.29688,-0.71875 v -1.25 q -0.0625,-0.29688 -0.1875,-0.5625 -0.10938,-0.26563 -0.29688,-0.46875 -0.1875,-0.21875 -0.45312,-0.34375 -0.26563,-0.125 -0.64063,-0.125 -0.39062,0 -0.67187,0.17187 -0.28125,0.15625 -0.46875,0.4375 -0.17188,0.28125 -0.26563,0.65625 -0.0781,0.375 -0.0781,0.79688 z m 7.60345,2.96875 q -0.57812,0 -1.0625,-0.20313 -0.46875,-0.20312 -0.8125,-0.5625 -0.34375,-0.375 -0.53125,-0.875 -0.17187,-0.5 -0.17187,-1.09375 v -0.20312 q 0,-0.6875 0.20312,-1.21875 0.20313,-0.54688 0.54688,-0.92188 0.35937,-0.375 0.79687,-0.5625 0.4375,-0.20312 0.90625,-0.20312 0.60938,0 1.04688,0.21875 0.4375,0.20312 0.71875,0.57812 0.28125,0.35938 0.42187,0.875 0.14063,0.5 0.14063,1.09375 v 0.42188 h -4.20313 v -0.78125 h 3.23438 v -0.0781 q -0.0156,-0.375 -0.15625,-0.71875 -0.125,-0.35937 -0.42188,-0.57812 -0.28125,-0.23438 -0.78125,-0.23438 -0.3125,0 -0.59375,0.14063 -0.28125,0.125 -0.48437,0.40625 -0.1875,0.26562 -0.29688,0.65625 -0.10937,0.39062 -0.10937,0.90625 v 0.20312 q 0,0.40625 0.10937,0.76563 0.10938,0.34375 0.32813,0.60937 0.21875,0.26563 0.51562,0.42188 0.3125,0.14062 0.71875,0.14062 0.5,0 0.85938,-0.20312 0.35937,-0.20313 0.625,-0.5625 l 0.57812,0.46875 q -0.1875,0.28125 -0.46875,0.53125 -0.28125,0.25 -0.6875,0.40625 -0.40625,0.15625 -0.96875,0.15625 z m 8.32526,-5.73438 v 0.73438 h -3.04688 v -0.73438 z m -2.01563,-1.375 h 0.96875 v 5.60938 q 0,0.28125 0.0781,0.4375 0.0937,0.14062 0.23437,0.1875 0.14063,0.0469 0.29688,0.0469 0.125,0 0.25,-0.0156 0.14062,-0.0312 0.20312,-0.0469 v 0.78125 q -0.10937,0.0312 -0.29687,0.0625 -0.17188,0.0469 -0.4375,0.0469 -0.35938,0 -0.65625,-0.14063 -0.29688,-0.14062 -0.46875,-0.46875 -0.17188,-0.34375 -0.17188,-0.90625 z m 2.78827,4.25 v -0.125 q 0,-0.60937 0.17188,-1.125 0.17187,-0.53125 0.5,-0.90625 0.34375,-0.39062 0.8125,-0.60937 0.48437,-0.21875 1.0625,-0.21875 0.59375,0 1.0625,0.21875 0.48437,0.21875 0.8125,0.60937 0.34375,0.375 0.51562,0.90625 0.1875,0.51563 0.1875,1.125 v 0.125 q 0,0.60938 -0.1875,1.125 -0.17187,0.51563 -0.51562,0.90625 -0.32813,0.39063 -0.79688,0.60938 -0.46875,0.21875 -1.0625,0.21875 -0.59375,0 -1.07812,-0.21875 -0.46875,-0.21875 -0.8125,-0.60938 -0.32813,-0.39062 -0.5,-0.90625 -0.17188,-0.51562 -0.17188,-1.125 z m 0.95313,-0.125 v 0.125 q 0,0.42188 0.0937,0.79688 0.10937,0.35937 0.3125,0.65625 0.20312,0.28125 0.5,0.45312 0.29687,0.15625 0.70312,0.15625 0.39063,0 0.6875,-0.15625 0.29688,-0.17187 0.5,-0.45312 0.20313,-0.29688 0.29688,-0.65625 0.10937,-0.375 0.10937,-0.79688 v -0.125 q 0,-0.40625 -0.10937,-0.78125 -0.0937,-0.375 -0.29688,-0.65625 -0.20312,-0.29687 -0.5,-0.45312 -0.29687,-0.17188 -0.70312,-0.17188 -0.39063,0 -0.6875,0.17188 -0.29688,0.15625 -0.5,0.45312 -0.20313,0.28125 -0.3125,0.65625 -0.0937,0.375 -0.0937,0.78125 z"
         fill-rule="nonzero"
         id="path2717" />
      <path
         fill="#ffffff"
         d="m 543.61304,428.41464 v 4.51563 h -0.96875 v -5.625 h 0.92187 z m -0.1875,1.48438 -0.45313,-0.0156 q 0,-0.57812 0.14063,-1.0625 0.15625,-0.5 0.4375,-0.85937 0.29687,-0.35938 0.71875,-0.5625 0.42187,-0.20313 0.98437,-0.20313 0.39063,0 0.71875,0.10938 0.34375,0.10937 0.57813,0.35937 0.25,0.23438 0.39062,0.60938 0.14063,0.375 0.14063,0.90625 v 3.75 h -0.96875 v -3.70313 q 0,-0.4375 -0.15625,-0.70312 -0.14063,-0.26563 -0.42188,-0.39063 -0.26562,-0.125 -0.625,-0.125 -0.42187,0 -0.71875,0.15625 -0.28125,0.14063 -0.45312,0.40625 -0.17188,0.26563 -0.25,0.60938 -0.0625,0.34375 -0.0625,0.71875 z m 3.64062,-0.53125 -0.64062,0.20312 q 0,-0.46875 0.14062,-0.89062 0.15625,-0.42188 0.4375,-0.75 0.28125,-0.34375 0.70313,-0.53125 0.42187,-0.20313 0.95312,-0.20313 0.45313,0 0.79688,0.125 0.35937,0.10938 0.59375,0.35938 0.25,0.25 0.375,0.64062 0.125,0.375 0.125,0.90625 v 3.70313 h -0.96875 v -3.70313 q 0,-0.48437 -0.15625,-0.73437 -0.14063,-0.26563 -0.40625,-0.375 -0.26563,-0.10938 -0.64063,-0.10938 -0.3125,0 -0.5625,0.10938 -0.25,0.10937 -0.42187,0.29687 -0.15625,0.1875 -0.25,0.4375 -0.0781,0.25 -0.0781,0.51563 z m 8.25129,2.59375 v -2.89063 q 0,-0.32812 -0.14063,-0.57812 -0.125,-0.25 -0.39062,-0.375 -0.26563,-0.14063 -0.65625,-0.14063 -0.35938,0 -0.64063,0.125 -0.26562,0.125 -0.42187,0.32813 -0.14063,0.20312 -0.14063,0.4375 h -0.96875 q 0,-0.3125 0.15625,-0.60938 0.15625,-0.29687 0.45313,-0.53125 0.29687,-0.25 0.70312,-0.39062 0.42188,-0.14063 0.92188,-0.14063 0.60937,0 1.07812,0.21875 0.48438,0.20313 0.75,0.625 0.26563,0.40625 0.26563,1.04688 v 2.60937 q 0,0.28125 0.0469,0.60938 0.0469,0.3125 0.15625,0.54687 v 0.0781 h -1.01562 q -0.0625,-0.17188 -0.10938,-0.4375 -0.0469,-0.28125 -0.0469,-0.53125 z m 0.17187,-2.4375 0.0156,0.67187 h -0.98438 q -0.40625,0 -0.73437,0.0625 -0.3125,0.0625 -0.53125,0.20313 -0.21875,0.125 -0.34375,0.32812 -0.10938,0.1875 -0.10938,0.4375 0,0.26563 0.125,0.48438 0.125,0.21875 0.35938,0.35937 0.25,0.125 0.59375,0.125 0.4375,0 0.78125,-0.1875 0.34375,-0.1875 0.53125,-0.45312 0.20312,-0.28125 0.21875,-0.53125 l 0.42187,0.45312 q -0.0469,0.21875 -0.20312,0.48438 -0.15625,0.26562 -0.4375,0.51562 -0.26563,0.23438 -0.64063,0.40625 -0.35937,0.15625 -0.8125,0.15625 -0.5625,0 -1,-0.21875 -0.42187,-0.23437 -0.67187,-0.60937 -0.23438,-0.375 -0.23438,-0.84375 0,-0.45313 0.17188,-0.79688 0.1875,-0.34375 0.51562,-0.57812 0.34375,-0.23438 0.8125,-0.34375 0.46875,-0.125 1.03125,-0.125 z m 3.28082,-4.59375 v 8 h -0.96875 v -8 z m 3.4375,2.375 -2.45312,2.625 -1.375,1.42187 -0.0781,-1.03125 0.98438,-1.17187 1.75,-1.84375 z m -0.875,5.625 -2.01562,-2.6875 0.5,-0.85938 2.64062,3.54688 z m 4.09369,0.10937 q -0.57812,0 -1.0625,-0.20312 -0.46875,-0.20313 -0.8125,-0.5625 -0.34375,-0.375 -0.53125,-0.875 -0.17187,-0.5 -0.17187,-1.09375 v -0.20313 q 0,-0.6875 0.20312,-1.21875 0.20313,-0.54687 0.54688,-0.92187 0.35937,-0.375 0.79687,-0.5625 0.4375,-0.20313 0.90625,-0.20313 0.60938,0 1.04688,0.21875 0.4375,0.20313 0.71875,0.57813 0.28125,0.35937 0.42187,0.875 0.14063,0.5 0.14063,1.09375 v 0.42187 h -4.20313 v -0.78125 h 3.23438 v -0.0781 q -0.0156,-0.375 -0.15625,-0.71875 -0.125,-0.35938 -0.42188,-0.57813 -0.28125,-0.23437 -0.78125,-0.23437 -0.3125,0 -0.59375,0.14062 -0.28125,0.125 -0.48437,0.40625 -0.1875,0.26563 -0.29688,0.65625 -0.10937,0.39063 -0.10937,0.90625 v 0.20313 q 0,0.40625 0.10937,0.76562 0.10938,0.34375 0.32813,0.60938 0.21875,0.26562 0.51562,0.42187 0.3125,0.14063 0.71875,0.14063 0.5,0 0.85938,-0.20313 0.35937,-0.20312 0.625,-0.5625 l 0.57812,0.46875 q -0.1875,0.28125 -0.46875,0.53125 -0.28125,0.25 -0.6875,0.40625 -0.40625,0.15625 -0.96875,0.15625 z m 8.3252,-5.73437 v 0.73437 h -3.04688 v -0.73437 z m -2.01563,-1.375 h 0.96875 v 5.60937 q 0,0.28125 0.0781,0.4375 0.0937,0.14063 0.23437,0.1875 0.14063,0.0469 0.29688,0.0469 0.125,0 0.25,-0.0156 0.14062,-0.0312 0.20312,-0.0469 v 0.78125 q -0.10937,0.0312 -0.29687,0.0625 -0.17188,0.0469 -0.4375,0.0469 -0.35938,0 -0.65625,-0.14062 -0.29688,-0.14063 -0.46875,-0.46875 -0.17188,-0.34375 -0.17188,-0.90625 z m 4.11121,-1 v 8 h -0.96875 v -8 z m -0.23438,4.96875 -0.40625,-0.0156 q 0.0156,-0.57812 0.17188,-1.0625 0.17187,-0.5 0.46875,-0.85937 0.3125,-0.35938 0.71875,-0.5625 0.42187,-0.20313 0.9375,-0.20313 0.40625,0 0.73437,0.10938 0.34375,0.10937 0.57813,0.35937 0.23437,0.25 0.35937,0.64063 0.125,0.375 0.125,0.9375 v 3.6875 h -0.96875 v -3.70313 q 0,-0.4375 -0.125,-0.70312 -0.125,-0.26563 -0.375,-0.39063 -0.25,-0.125 -0.625,-0.125 -0.35937,0 -0.65625,0.15625 -0.28125,0.14063 -0.5,0.40625 -0.20312,0.26563 -0.32812,0.60938 -0.10938,0.34375 -0.10938,0.71875 z m 7.46302,3.14062 q -0.57813,0 -1.0625,-0.20312 -0.46875,-0.20313 -0.8125,-0.5625 -0.34375,-0.375 -0.53125,-0.875 -0.17188,-0.5 -0.17188,-1.09375 v -0.20313 q 0,-0.6875 0.20313,-1.21875 0.20312,-0.54687 0.54687,-0.92187 0.35938,-0.375 0.79688,-0.5625 0.4375,-0.20313 0.90625,-0.20313 0.60937,0 1.04687,0.21875 0.4375,0.20313 0.71875,0.57813 0.28125,0.35937 0.42188,0.875 0.14062,0.5 0.14062,1.09375 v 0.42187 h -4.20312 v -0.78125 h 3.23437 v -0.0781 q -0.0156,-0.375 -0.15625,-0.71875 -0.125,-0.35938 -0.42187,-0.57813 -0.28125,-0.23437 -0.78125,-0.23437 -0.3125,0 -0.59375,0.14062 -0.28125,0.125 -0.48438,0.40625 -0.1875,0.26563 -0.29687,0.65625 -0.10938,0.39063 -0.10938,0.90625 v 0.20313 q 0,0.40625 0.10938,0.76562 0.10937,0.34375 0.32812,0.60938 0.21875,0.26562 0.51563,0.42187 0.3125,0.14063 0.71875,0.14063 0.5,0 0.85937,-0.20313 0.35938,-0.20312 0.625,-0.5625 l 0.57813,0.46875 q -0.1875,0.28125 -0.46875,0.53125 -0.28125,0.25 -0.6875,0.40625 -0.40625,0.15625 -0.96875,0.15625 z m 8.32519,-5.73437 v 0.73437 h -3.04687 v -0.73437 z m -2.01562,-1.375 h 0.96875 v 5.60937 q 0,0.28125 0.0781,0.4375 0.0937,0.14063 0.23438,0.1875 0.14062,0.0469 0.29687,0.0469 0.125,0 0.25,-0.0156 0.14063,-0.0312 0.20313,-0.0469 v 0.78125 q -0.10938,0.0312 -0.29688,0.0625 -0.17187,0.0469 -0.4375,0.0469 -0.35937,0 -0.65625,-0.14062 -0.29687,-0.14063 -0.46875,-0.46875 -0.17187,-0.34375 -0.17187,-0.90625 z m 5.47058,7.10937 q -0.57813,0 -1.0625,-0.20312 -0.46875,-0.20313 -0.8125,-0.5625 -0.34375,-0.375 -0.53125,-0.875 -0.17188,-0.5 -0.17188,-1.09375 v -0.20313 q 0,-0.6875 0.20313,-1.21875 0.20312,-0.54687 0.54687,-0.92187 0.35938,-0.375 0.79688,-0.5625 0.4375,-0.20313 0.90625,-0.20313 0.60937,0 1.04687,0.21875 0.4375,0.20313 0.71875,0.57813 0.28125,0.35937 0.42188,0.875 0.14062,0.5 0.14062,1.09375 v 0.42187 h -4.20312 v -0.78125 h 3.23437 v -0.0781 q -0.0156,-0.375 -0.15625,-0.71875 -0.125,-0.35938 -0.42187,-0.57813 -0.28125,-0.23437 -0.78125,-0.23437 -0.3125,0 -0.59375,0.14062 -0.28125,0.125 -0.48438,0.40625 -0.1875,0.26563 -0.29687,0.65625 -0.10938,0.39063 -0.10938,0.90625 v 0.20313 q 0,0.40625 0.10938,0.76562 0.10937,0.34375 0.32812,0.60938 0.21875,0.26562 0.51563,0.42187 0.3125,0.14063 0.71875,0.14063 0.5,0 0.85937,-0.20313 0.35938,-0.20312 0.625,-0.5625 l 0.57813,0.46875 q -0.1875,0.28125 -0.46875,0.53125 -0.28125,0.25 -0.6875,0.40625 -0.40625,0.15625 -0.96875,0.15625 z m 6.60382,-1.60937 q 0,-0.20313 -0.0937,-0.375 -0.0937,-0.1875 -0.375,-0.32813 -0.28125,-0.15625 -0.82813,-0.26562 -0.46875,-0.0937 -0.84375,-0.21875 -0.375,-0.14063 -0.64062,-0.32813 -0.26563,-0.20312 -0.40625,-0.45312 -0.14063,-0.26563 -0.14063,-0.625 0,-0.32813 0.14063,-0.625 0.15625,-0.29688 0.42187,-0.51563 0.28125,-0.23437 0.65625,-0.35937 0.39063,-0.14063 0.85938,-0.14063 0.6875,0 1.15625,0.25 0.48437,0.23438 0.73437,0.64063 0.26563,0.39062 0.26563,0.875 h -0.96875 q 0,-0.23438 -0.14063,-0.45313 -0.14062,-0.23437 -0.40625,-0.375 -0.25,-0.14062 -0.64062,-0.14062 -0.39063,0 -0.64063,0.125 -0.25,0.10937 -0.35937,0.29687 -0.10938,0.1875 -0.10938,0.40625 0,0.15625 0.0469,0.28125 0.0625,0.10938 0.20312,0.21875 0.14063,0.0937 0.39063,0.1875 0.26562,0.0937 0.65625,0.17188 0.6875,0.15625 1.125,0.375 0.45312,0.21875 0.67187,0.54687 0.21875,0.3125 0.21875,0.76563 0,0.35937 -0.15625,0.67187 -0.14062,0.3125 -0.4375,0.53125 -0.28125,0.21875 -0.6875,0.34375 -0.39062,0.125 -0.89062,0.125 -0.73438,0 -1.25,-0.26562 -0.51563,-0.26563 -0.78125,-0.6875 -0.26563,-0.42188 -0.26563,-0.89063 h 0.96875 q 0.0156,0.39063 0.21875,0.625 0.21875,0.23438 0.51563,0.32813 0.29687,0.0937 0.59375,0.0937 0.39062,0 0.65625,-0.0937 0.28125,-0.10938 0.42187,-0.29688 0.14063,-0.1875 0.14063,-0.42187 z m 4.57794,-4.125 v 0.73437 h -3.04687 v -0.73437 z m -2.01562,-1.375 h 0.96875 v 5.60937 q 0,0.28125 0.0781,0.4375 0.0937,0.14063 0.23438,0.1875 0.14062,0.0469 0.29687,0.0469 0.125,0 0.25,-0.0156 0.14063,-0.0312 0.20313,-0.0469 v 0.78125 q -0.10938,0.0312 -0.29688,0.0625 -0.17187,0.0469 -0.4375,0.0469 -0.35937,0 -0.65625,-0.14062 -0.29687,-0.14063 -0.46875,-0.46875 -0.17187,-0.34375 -0.17187,-0.90625 z"
         fill-rule="nonzero"
         id="path2719" />
      <path
         fill="#ffffff"
         d="m 564.491,441.3834 v 6.71875 h -0.96875 v -7.79688 h 0.875 z m 3.78125,1.6875 v 0.10937 q 0,0.60938 -0.14063,1.14063 -0.14062,0.51562 -0.42187,0.90625 -0.28125,0.375 -0.6875,0.59375 -0.40625,0.21875 -0.9375,0.21875 -0.53125,0 -0.9375,-0.17188 -0.40625,-0.1875 -0.70313,-0.51562 -0.28125,-0.34375 -0.45312,-0.8125 -0.17188,-0.48438 -0.23438,-1.07813 v -0.57812 q 0.0625,-0.625 0.23438,-1.10938 0.17187,-0.5 0.45312,-0.84375 0.29688,-0.35937 0.6875,-0.54687 0.40625,-0.1875 0.9375,-0.1875 0.53125,0 0.9375,0.20312 0.42188,0.20313 0.70313,0.59375 0.28125,0.375 0.42187,0.90625 0.14063,0.53125 0.14063,1.17188 z m -0.96875,0.10937 v -0.10937 q 0,-0.42188 -0.0937,-0.79688 -0.0781,-0.375 -0.26563,-0.65625 -0.1875,-0.28125 -0.46875,-0.4375 -0.28125,-0.17187 -0.6875,-0.17187 -0.35937,0 -0.625,0.125 -0.26562,0.125 -0.45312,0.34375 -0.1875,0.20312 -0.3125,0.46875 -0.10938,0.26562 -0.17188,0.5625 v 1.34375 q 0.10938,0.35937 0.29688,0.6875 0.1875,0.3125 0.5,0.51562 0.3125,0.1875 0.78125,0.1875 0.39062,0 0.67187,-0.15625 0.28125,-0.17187 0.46875,-0.45312 0.1875,-0.29688 0.26563,-0.65625 0.0937,-0.375 0.0937,-0.79688 z m 5.51501,1.78125 v -2.89062 q 0,-0.32813 -0.14062,-0.57813 -0.125,-0.25 -0.39063,-0.375 -0.26562,-0.14062 -0.65625,-0.14062 -0.35937,0 -0.64062,0.125 -0.26563,0.125 -0.42188,0.32812 -0.14062,0.20313 -0.14062,0.4375 h -0.96875 q 0,-0.3125 0.15625,-0.60937 0.15625,-0.29688 0.45312,-0.53125 0.29688,-0.25 0.70313,-0.39063 0.42187,-0.14062 0.92187,-0.14062 0.60938,0 1.07813,0.21875 0.48437,0.20312 0.75,0.625 0.26562,0.40625 0.26562,1.04687 v 2.60938 q 0,0.28125 0.0469,0.60937 0.0469,0.3125 0.15625,0.54688 v 0.0781 h -1.01563 q -0.0625,-0.17187 -0.10937,-0.4375 -0.0469,-0.28125 -0.0469,-0.53125 z m 0.17188,-2.4375 0.0156,0.67188 h -0.98437 q -0.40625,0 -0.73438,0.0625 -0.3125,0.0625 -0.53125,0.20312 -0.21875,0.125 -0.34375,0.32813 -0.10937,0.1875 -0.10937,0.4375 0,0.26562 0.125,0.48437 0.125,0.21875 0.35937,0.35938 0.25,0.125 0.59375,0.125 0.4375,0 0.78125,-0.1875 0.34375,-0.1875 0.53125,-0.45313 0.20313,-0.28125 0.21875,-0.53125 l 0.42188,0.45313 q -0.0469,0.21875 -0.20313,0.48437 -0.15625,0.26563 -0.4375,0.51563 -0.26562,0.23437 -0.64062,0.40625 -0.35938,0.15625 -0.8125,0.15625 -0.5625,0 -1,-0.21875 -0.42188,-0.23438 -0.67188,-0.60938 -0.23437,-0.375 -0.23437,-0.84375 0,-0.45312 0.17187,-0.79687 0.1875,-0.34375 0.51563,-0.57813 0.34375,-0.23437 0.8125,-0.34375 0.46875,-0.125 1.03125,-0.125 z m 5.59326,1.90625 q 0,-0.20312 -0.0937,-0.375 -0.0937,-0.1875 -0.375,-0.32812 -0.28125,-0.15625 -0.82812,-0.26563 -0.46875,-0.0937 -0.84375,-0.21875 -0.375,-0.14062 -0.64063,-0.32812 -0.26562,-0.20313 -0.40625,-0.45313 -0.14062,-0.26562 -0.14062,-0.625 0,-0.32812 0.14062,-0.625 0.15625,-0.29687 0.42188,-0.51562 0.28125,-0.23438 0.65625,-0.35938 0.39062,-0.14062 0.85937,-0.14062 0.6875,0 1.15625,0.25 0.48438,0.23437 0.73438,0.64062 0.26562,0.39063 0.26562,0.875 h -0.96875 q 0,-0.23437 -0.14062,-0.45312 -0.14063,-0.23438 -0.40625,-0.375 -0.25,-0.14063 -0.64063,-0.14063 -0.39062,0 -0.64062,0.125 -0.25,0.10938 -0.35938,0.29688 -0.10937,0.1875 -0.10937,0.40625 0,0.15625 0.0469,0.28125 0.0625,0.10937 0.20313,0.21875 0.14062,0.0937 0.39062,0.1875 0.26563,0.0937 0.65625,0.17187 0.6875,0.15625 1.125,0.375 0.45313,0.21875 0.67188,0.54688 0.21875,0.3125 0.21875,0.76562 0,0.35938 -0.15625,0.67188 -0.14063,0.3125 -0.4375,0.53125 -0.28125,0.21875 -0.6875,0.34375 -0.39063,0.125 -0.89063,0.125 -0.73437,0 -1.25,-0.26563 -0.51562,-0.26562 -0.78125,-0.6875 -0.26562,-0.42187 -0.26562,-0.89062 h 0.96875 q 0.0156,0.39062 0.21875,0.625 0.21875,0.23437 0.51562,0.32812 0.29688,0.0937 0.59375,0.0937 0.39063,0 0.65625,-0.0937 0.28125,-0.10937 0.42188,-0.29687 0.14062,-0.1875 0.14062,-0.42188 z m 5.49988,0 q 0,-0.20312 -0.0937,-0.375 -0.0937,-0.1875 -0.375,-0.32812 -0.28125,-0.15625 -0.82813,-0.26563 -0.46875,-0.0937 -0.84375,-0.21875 -0.375,-0.14062 -0.64062,-0.32812 -0.26563,-0.20313 -0.40625,-0.45313 -0.14063,-0.26562 -0.14063,-0.625 0,-0.32812 0.14063,-0.625 0.15625,-0.29687 0.42187,-0.51562 0.28125,-0.23438 0.65625,-0.35938 0.39063,-0.14062 0.85938,-0.14062 0.6875,0 1.15625,0.25 0.48437,0.23437 0.73437,0.64062 0.26563,0.39063 0.26563,0.875 h -0.96875 q 0,-0.23437 -0.14063,-0.45312 -0.14062,-0.23438 -0.40625,-0.375 -0.25,-0.14063 -0.64062,-0.14063 -0.39063,0 -0.64063,0.125 -0.25,0.10938 -0.35937,0.29688 -0.10938,0.1875 -0.10938,0.40625 0,0.15625 0.0469,0.28125 0.0625,0.10937 0.20312,0.21875 0.14063,0.0937 0.39063,0.1875 0.26562,0.0937 0.65625,0.17187 0.6875,0.15625 1.125,0.375 0.45312,0.21875 0.67187,0.54688 0.21875,0.3125 0.21875,0.76562 0,0.35938 -0.15625,0.67188 -0.14062,0.3125 -0.4375,0.53125 -0.28125,0.21875 -0.6875,0.34375 -0.39062,0.125 -0.89062,0.125 -0.73438,0 -1.25,-0.26563 -0.51563,-0.26562 -0.78125,-0.6875 -0.26563,-0.42187 -0.26563,-0.89062 h 0.96875 q 0.0156,0.39062 0.21875,0.625 0.21875,0.23437 0.51563,0.32812 0.29687,0.0937 0.59375,0.0937 0.39062,0 0.65625,-0.0937 0.28125,-0.10937 0.42187,-0.29687 0.14063,-0.1875 0.14063,-0.42188 z"
         fill-rule="nonzero"
         id="path2721" />
    </g>
    <defs
       id="defs2741">
      <filter
         id="shadowFilter-g1fdf626aaf9_0_0.5"
         filterUnits="userSpaceOnUse">
        <feGaussianBlur
           in="SourceAlpha"
           stdDeviation="2.0"
           result="blur"
           id="feGaussianBlur2728" />
        <feComponentTransfer
           in="blur"
           color-interpolation-filters="sRGB"
           id="feComponentTransfer2738">
          <feFuncR
             type="linear"
             slope="0"
             intercept="0.0"
             id="feFuncR2730" />
          <feFuncG
             type="linear"
             slope="0"
             intercept="0.0"
             id="feFuncG2732" />
          <feFuncB
             type="linear"
             slope="0"
             intercept="0.0"
             id="feFuncB2734" />
          <feFuncA
             type="linear"
             slope="0.5"
             intercept="0"
             id="feFuncA2736" />
        </feComponentTransfer>
      </filter>
    </defs>
    <g
       id="g1fdf626aaf9_0_0.5">
      <path
         fill="#274e13"
         d="m 530.19495,382.05283 h 87.96442 c 0.82385,0 1.61401,0.32727 2.19653,0.90985 0.58258,0.58255 0.90985,1.37268 0.90985,2.19653 v 15.53156 c 0,4.6e-4 -3.6e-4,7.9e-4 -7.9e-4,7.9e-4 l -94.17639,-7.9e-4 c -4.3e-4,0 -7.3e-4,-3.4e-4 -7.3e-4,-7.6e-4 l 7.3e-4,-15.5308 c 0,-1.7156 1.39081,-3.10638 3.10639,-3.10638 z"
         fill-rule="evenodd"
         id="path2743" />
      <path
         fill="#ffffff"
         d="m 550.71246,387.9886 v 7.57813 h -1 v -7.57813 z m 2.63257,3.0625 v 4.51563 h -0.96875 v -5.625 h 0.92187 z m -0.1875,1.48438 -0.45313,-0.0156 q 0,-0.57812 0.14063,-1.0625 0.15625,-0.5 0.4375,-0.85937 0.29687,-0.35938 0.71875,-0.5625 0.42187,-0.20313 0.98437,-0.20313 0.39063,0 0.71875,0.10938 0.34375,0.10937 0.57813,0.35937 0.25,0.23438 0.39062,0.60938 0.14063,0.375 0.14063,0.90625 v 3.75 h -0.96875 v -3.70313 q 0,-0.4375 -0.15625,-0.70312 -0.14063,-0.26563 -0.42188,-0.39063 -0.26562,-0.125 -0.625,-0.125 -0.42187,0 -0.71875,0.15625 -0.28125,0.14063 -0.45312,0.40625 -0.17188,0.26563 -0.25,0.60938 -0.0625,0.34375 -0.0625,0.71875 z m 3.64062,-0.53125 -0.64062,0.20312 q 0,-0.46875 0.14062,-0.89062 0.15625,-0.42188 0.4375,-0.75 0.28125,-0.34375 0.70313,-0.53125 0.42187,-0.20313 0.95312,-0.20313 0.45313,0 0.79688,0.125 0.35937,0.10938 0.59375,0.35938 0.25,0.25 0.375,0.64062 0.125,0.375 0.125,0.90625 v 3.70313 h -0.96875 v -3.70313 q 0,-0.48437 -0.15625,-0.73437 -0.14063,-0.26563 -0.40625,-0.375 -0.26563,-0.10938 -0.64063,-0.10938 -0.3125,0 -0.5625,0.10938 -0.25,0.10937 -0.42187,0.29687 -0.15625,0.1875 -0.25,0.4375 -0.0781,0.25 -0.0781,0.51563 z m 5.90754,-0.98438 v 6.71875 h -0.96875 v -7.79687 h 0.875 z m 3.78125,1.6875 v 0.10938 q 0,0.60937 -0.14063,1.14062 -0.14062,0.51563 -0.42187,0.90625 -0.28125,0.375 -0.6875,0.59375 -0.40625,0.21875 -0.9375,0.21875 -0.53125,0 -0.9375,-0.17187 -0.40625,-0.1875 -0.70313,-0.51563 -0.28125,-0.34375 -0.45312,-0.8125 -0.17188,-0.48437 -0.23438,-1.07812 v -0.57813 q 0.0625,-0.625 0.23438,-1.10937 0.17187,-0.5 0.45312,-0.84375 0.29688,-0.35938 0.6875,-0.54688 0.40625,-0.1875 0.9375,-0.1875 0.53125,0 0.9375,0.20313 0.42188,0.20312 0.70313,0.59375 0.28125,0.375 0.42187,0.90625 0.14063,0.53125 0.14063,1.17187 z m -0.96875,0.10938 v -0.10938 q 0,-0.42187 -0.0937,-0.79687 -0.0781,-0.375 -0.26563,-0.65625 -0.1875,-0.28125 -0.46875,-0.4375 -0.28125,-0.17188 -0.6875,-0.17188 -0.35937,0 -0.625,0.125 -0.26562,0.125 -0.45312,0.34375 -0.1875,0.20313 -0.3125,0.46875 -0.10938,0.26563 -0.17188,0.5625 v 1.34375 q 0.10938,0.35938 0.29688,0.6875 0.1875,0.3125 0.5,0.51563 0.3125,0.1875 0.78125,0.1875 0.39062,0 0.67187,-0.15625 0.28125,-0.17188 0.46875,-0.45313 0.1875,-0.29687 0.26563,-0.65625 0.0937,-0.375 0.0937,-0.79687 z m 3.24932,-5.25 v 8 h -0.96875 v -8 z m 3.8725,8.10937 q -0.57812,0 -1.0625,-0.20312 -0.46875,-0.20313 -0.8125,-0.5625 -0.34375,-0.375 -0.53125,-0.875 -0.17187,-0.5 -0.17187,-1.09375 v -0.20313 q 0,-0.6875 0.20312,-1.21875 0.20313,-0.54687 0.54688,-0.92187 0.35937,-0.375 0.79687,-0.5625 0.4375,-0.20313 0.90625,-0.20313 0.60938,0 1.04688,0.21875 0.4375,0.20313 0.71875,0.57813 0.28125,0.35937 0.42187,0.875 0.14063,0.5 0.14063,1.09375 v 0.42187 h -4.20313 v -0.78125 h 3.23438 v -0.0781 q -0.0156,-0.375 -0.15625,-0.71875 -0.125,-0.35938 -0.42188,-0.57813 -0.28125,-0.23437 -0.78125,-0.23437 -0.3125,0 -0.59375,0.14062 -0.28125,0.125 -0.48437,0.40625 -0.1875,0.26563 -0.29688,0.65625 -0.10937,0.39063 -0.10937,0.90625 v 0.20313 q 0,0.40625 0.10937,0.76562 0.10938,0.34375 0.32813,0.60938 0.21875,0.26562 0.51562,0.42187 0.3125,0.14063 0.71875,0.14063 0.5,0 0.85938,-0.20313 0.35937,-0.20312 0.625,-0.5625 l 0.57812,0.46875 q -0.1875,0.28125 -0.46875,0.53125 -0.28125,0.25 -0.6875,0.40625 -0.40625,0.15625 -0.96875,0.15625 z m 4.2757,-4.625 v 4.51563 h -0.96875 v -5.625 h 0.92187 z m -0.1875,1.48438 -0.45313,-0.0156 q 0,-0.57812 0.14063,-1.0625 0.15625,-0.5 0.4375,-0.85937 0.29687,-0.35938 0.71875,-0.5625 0.42187,-0.20313 0.98437,-0.20313 0.39063,0 0.71875,0.10938 0.34375,0.10937 0.57813,0.35937 0.25,0.23438 0.39062,0.60938 0.14063,0.375 0.14063,0.90625 v 3.75 h -0.96875 v -3.70313 q 0,-0.4375 -0.15625,-0.70312 -0.14063,-0.26563 -0.42188,-0.39063 -0.26562,-0.125 -0.625,-0.125 -0.42187,0 -0.71875,0.15625 -0.28125,0.14063 -0.45312,0.40625 -0.17188,0.26563 -0.25,0.60938 -0.0625,0.34375 -0.0625,0.71875 z m 3.64062,-0.53125 -0.64062,0.20312 q 0,-0.46875 0.14062,-0.89062 0.15625,-0.42188 0.4375,-0.75 0.28125,-0.34375 0.70313,-0.53125 0.42187,-0.20313 0.95312,-0.20313 0.45313,0 0.79688,0.125 0.35937,0.10938 0.59375,0.35938 0.25,0.25 0.375,0.64062 0.125,0.375 0.125,0.90625 v 3.70313 h -0.96875 v -3.70313 q 0,-0.48437 -0.15625,-0.73437 -0.14063,-0.26563 -0.40625,-0.375 -0.26563,-0.10938 -0.64063,-0.10938 -0.3125,0 -0.5625,0.10938 -0.25,0.10937 -0.42187,0.29687 -0.15625,0.1875 -0.25,0.4375 -0.0781,0.25 -0.0781,0.51563 z m 7.26691,3.67187 q -0.57813,0 -1.0625,-0.20312 -0.46875,-0.20313 -0.8125,-0.5625 -0.34375,-0.375 -0.53125,-0.875 -0.17188,-0.5 -0.17188,-1.09375 v -0.20313 q 0,-0.6875 0.20313,-1.21875 0.20312,-0.54687 0.54687,-0.92187 0.35938,-0.375 0.79688,-0.5625 0.4375,-0.20313 0.90625,-0.20313 0.60937,0 1.04687,0.21875 0.4375,0.20313 0.71875,0.57813 0.28125,0.35937 0.42188,0.875 0.14062,0.5 0.14062,1.09375 v 0.42187 h -4.20312 v -0.78125 h 3.23437 v -0.0781 q -0.0156,-0.375 -0.15625,-0.71875 -0.125,-0.35938 -0.42187,-0.57813 -0.28125,-0.23437 -0.78125,-0.23437 -0.3125,0 -0.59375,0.14062 -0.28125,0.125 -0.48438,0.40625 -0.1875,0.26563 -0.29687,0.65625 -0.10938,0.39063 -0.10938,0.90625 v 0.20313 q 0,0.40625 0.10938,0.76562 0.10937,0.34375 0.32812,0.60938 0.21875,0.26562 0.51563,0.42187 0.3125,0.14063 0.71875,0.14063 0.5,0 0.85937,-0.20313 0.35938,-0.20312 0.625,-0.5625 l 0.57813,0.46875 q -0.1875,0.28125 -0.46875,0.53125 -0.28125,0.25 -0.6875,0.40625 -0.40625,0.15625 -0.96875,0.15625 z m 4.29138,-4.53125 v 4.42188 h -0.96875 v -5.625 h 0.90625 z m -0.23437,1.39063 -0.40625,-0.0156 q 0.0156,-0.57812 0.17187,-1.0625 0.17188,-0.5 0.46875,-0.85937 0.3125,-0.35938 0.71875,-0.5625 0.42188,-0.20313 0.9375,-0.20313 0.40625,0 0.73438,0.10938 0.34375,0.10937 0.57812,0.35937 0.23438,0.25 0.35938,0.64063 0.125,0.375 0.125,0.9375 v 3.6875 h -0.96875 v -3.70313 q 0,-0.4375 -0.125,-0.70312 -0.125,-0.26563 -0.375,-0.39063 -0.25,-0.125 -0.625,-0.125 -0.35938,0 -0.65625,0.15625 -0.28125,0.14063 -0.5,0.40625 -0.20313,0.26563 -0.32813,0.60938 -0.10937,0.34375 -0.10937,0.71875 z m 7.50988,-2.59375 v 0.73437 h -3.04687 v -0.73437 z m -2.01562,-1.375 h 0.96875 v 5.60937 q 0,0.28125 0.0781,0.4375 0.0937,0.14063 0.23438,0.1875 0.14062,0.0469 0.29687,0.0469 0.125,0 0.25,-0.0156 0.14063,-0.0312 0.20313,-0.0469 v 0.78125 q -0.10938,0.0312 -0.29688,0.0625 -0.17187,0.0469 -0.4375,0.0469 -0.35937,0 -0.65625,-0.14062 -0.29687,-0.14063 -0.46875,-0.46875 -0.17187,-0.34375 -0.17187,-0.90625 z"
         fill-rule="nonzero"
         id="path2745" />
    </g>
    <defs
       id="defs2765">
      <filter
         id="shadowFilter-g1fdf626aaf9_0_0.6"
         filterUnits="userSpaceOnUse">
        <feGaussianBlur
           in="SourceAlpha"
           stdDeviation="2.0"
           result="blur"
           id="feGaussianBlur2752" />
        <feComponentTransfer
           in="blur"
           color-interpolation-filters="sRGB"
           id="feComponentTransfer2762">
          <feFuncR
             type="linear"
             slope="0"
             intercept="0.0"
             id="feFuncR2754" />
          <feFuncG
             type="linear"
             slope="0"
             intercept="0.0"
             id="feFuncG2756" />
          <feFuncB
             type="linear"
             slope="0"
             intercept="0.0"
             id="feFuncB2758" />
          <feFuncA
             type="linear"
             slope="0.5"
             intercept="0"
             id="feFuncA2760" />
        </feComponentTransfer>
      </filter>
    </defs>
    <g
       id="g1fdf626aaf9_0_0.6">
      <path
         fill="#990000"
         d="m 432.91077,288.63782 h 94.17718 v 60.13193 h -94.17718 z"
         fill-rule="evenodd"
         id="path2767" />
      <path
         fill="#ffffff"
         d="m 450.41916,305.58096 1.5,-5.28125 h 0.73437 l -0.42187,2.0625 -1.625,5.51562 h -0.71875 z m -1.5625,-5.28125 1.20312,5.1875 0.35938,2.39062 h -0.71875 l -1.84375,-7.57812 z m 5.73437,5.17187 1.17188,-5.17187 h 1 l -1.82813,7.57812 h -0.71875 z m -1.82812,-5.17187 1.45312,5.28125 0.53125,2.29687 h -0.71875 l -1.5625,-5.51562 -0.42187,-2.0625 z m 5.82928,2.82812 v 4.75 h -0.96875 v -5.625 h 0.9375 z m 1.75,-0.90625 v 0.89063 q -0.125,-0.0312 -0.23437,-0.0312 -0.10938,-0.0156 -0.23438,-0.0156 -0.32812,0 -0.59375,0.10938 -0.25,0.10937 -0.4375,0.29687 -0.17187,0.1875 -0.28125,0.45313 -0.0937,0.25 -0.125,0.54687 l -0.26562,0.15625 q 0,-0.5 0.0937,-0.95312 0.10937,-0.45313 0.3125,-0.79688 0.21875,-0.34375 0.54687,-0.53125 0.34375,-0.20312 0.79688,-0.20312 0.0937,0 0.23437,0.0312 0.14063,0.0156 0.1875,0.0469 z m 1.93918,0.0312 v 5.625 h -0.96875 v -5.625 z m -1.04687,-1.5 q 0,-0.23437 0.14062,-0.39062 0.15625,-0.17188 0.4375,-0.17188 0.26563,0 0.40625,0.17188 0.15625,0.15625 0.15625,0.39062 0,0.21875 -0.15625,0.39063 -0.14062,0.15625 -0.40625,0.15625 -0.28125,0 -0.4375,-0.15625 -0.14062,-0.17188 -0.14062,-0.39063 z m 4.95059,1.5 v 0.73438 h -3.04687 v -0.73438 z m -2.01562,-1.375 h 0.96875 v 5.60938 q 0,0.28125 0.0781,0.4375 0.0937,0.14062 0.23438,0.1875 0.14062,0.0469 0.29687,0.0469 0.125,0 0.25,-0.0156 0.14063,-0.0312 0.20313,-0.0469 v 0.78125 q -0.10938,0.0312 -0.29688,0.0625 -0.17187,0.0469 -0.4375,0.0469 -0.35937,0 -0.65625,-0.14063 -0.29687,-0.14062 -0.46875,-0.46875 -0.17187,-0.34375 -0.17187,-0.90625 z m 5.47055,7.10938 q -0.57813,0 -1.0625,-0.20313 -0.46875,-0.20312 -0.8125,-0.5625 -0.34375,-0.375 -0.53125,-0.875 -0.17188,-0.5 -0.17188,-1.09375 v -0.20312 q 0,-0.6875 0.20313,-1.21875 0.20312,-0.54688 0.54687,-0.92188 0.35938,-0.375 0.79688,-0.5625 0.4375,-0.20312 0.90625,-0.20312 0.60937,0 1.04687,0.21875 0.4375,0.20312 0.71875,0.57812 0.28125,0.35938 0.42188,0.875 0.14062,0.5 0.14062,1.09375 v 0.42188 h -4.20312 v -0.78125 h 3.23437 v -0.0781 q -0.0156,-0.375 -0.15625,-0.71875 -0.125,-0.35937 -0.42187,-0.57812 -0.28125,-0.23438 -0.78125,-0.23438 -0.3125,0 -0.59375,0.14063 -0.28125,0.125 -0.48438,0.40625 -0.1875,0.26562 -0.29687,0.65625 -0.10938,0.39062 -0.10938,0.90625 v 0.20312 q 0,0.40625 0.10938,0.76563 0.10937,0.34375 0.32812,0.60937 0.21875,0.26563 0.51563,0.42188 0.3125,0.14062 0.71875,0.14062 0.5,0 0.85937,-0.20312 0.35938,-0.20313 0.625,-0.5625 l 0.57813,0.46875 q -0.1875,0.28125 -0.46875,0.53125 -0.28125,0.25 -0.6875,0.40625 -0.40625,0.15625 -0.96875,0.15625 z m 9.27835,-1.07813 v -2.89062 q 0,-0.32813 -0.14063,-0.57813 -0.125,-0.25 -0.39062,-0.375 -0.26563,-0.14062 -0.65625,-0.14062 -0.35938,0 -0.64063,0.125 -0.26562,0.125 -0.42187,0.32812 -0.14063,0.20313 -0.14063,0.4375 h -0.96875 q 0,-0.3125 0.15625,-0.60937 0.15625,-0.29688 0.45313,-0.53125 0.29687,-0.25 0.70312,-0.39063 0.42188,-0.14062 0.92188,-0.14062 0.60937,0 1.07812,0.21875 0.48438,0.20312 0.75,0.625 0.26563,0.40625 0.26563,1.04687 v 2.60938 q 0,0.28125 0.0469,0.60937 0.0469,0.3125 0.15625,0.54688 v 0.0781 h -1.01562 q -0.0625,-0.17187 -0.10938,-0.4375 -0.0469,-0.28125 -0.0469,-0.53125 z m 0.17187,-2.4375 0.0156,0.67188 h -0.98438 q -0.40625,0 -0.73437,0.0625 -0.3125,0.0625 -0.53125,0.20312 -0.21875,0.125 -0.34375,0.32813 -0.10938,0.1875 -0.10938,0.4375 0,0.26562 0.125,0.48437 0.125,0.21875 0.35938,0.35938 0.25,0.125 0.59375,0.125 0.4375,0 0.78125,-0.1875 0.34375,-0.1875 0.53125,-0.45313 0.20312,-0.28125 0.21875,-0.53125 l 0.42187,0.45313 q -0.0469,0.21875 -0.20312,0.48437 -0.15625,0.26563 -0.4375,0.51563 -0.26563,0.23437 -0.64063,0.40625 -0.35937,0.15625 -0.8125,0.15625 -0.5625,0 -1,-0.21875 -0.42187,-0.23438 -0.67187,-0.60938 -0.23438,-0.375 -0.23438,-0.84375 0,-0.45312 0.17188,-0.79687 0.1875,-0.34375 0.51562,-0.57813 0.34375,-0.23437 0.8125,-0.34375 0.46875,-0.125 1.03125,-0.125 z m 6.39279,3.40625 h -0.96875 v -6.21875 q 0,-0.60937 0.21875,-1.03125 0.23438,-0.42187 0.64063,-0.625 0.42187,-0.21875 0.98437,-0.21875 0.17188,0 0.34375,0.0156 0.17188,0.0156 0.32813,0.0625 l -0.0469,0.78125 q -0.10937,-0.0312 -0.25,-0.0312 -0.14062,-0.0156 -0.28125,-0.0156 -0.29687,0 -0.51562,0.125 -0.21875,0.125 -0.34375,0.35938 -0.10938,0.23437 -0.10938,0.57812 z m 1.1875,-5.625 v 0.73438 h -3.04687 v -0.73438 z m 4.39222,4.65625 v -2.89062 q 0,-0.32813 -0.14063,-0.57813 -0.125,-0.25 -0.39062,-0.375 -0.26563,-0.14062 -0.65625,-0.14062 -0.35938,0 -0.64063,0.125 -0.26562,0.125 -0.42187,0.32812 -0.14063,0.20313 -0.14063,0.4375 h -0.96875 q 0,-0.3125 0.15625,-0.60937 0.15625,-0.29688 0.45313,-0.53125 0.29687,-0.25 0.70312,-0.39063 0.42188,-0.14062 0.92188,-0.14062 0.60937,0 1.07812,0.21875 0.48438,0.20312 0.75,0.625 0.26563,0.40625 0.26563,1.04687 v 2.60938 q 0,0.28125 0.0469,0.60937 0.0469,0.3125 0.15625,0.54688 v 0.0781 H 491.219 q -0.0625,-0.17187 -0.10938,-0.4375 -0.0469,-0.28125 -0.0469,-0.53125 z m 0.17187,-2.4375 0.0156,0.67188 h -0.98438 q -0.40625,0 -0.73437,0.0625 -0.3125,0.0625 -0.53125,0.20312 -0.21875,0.125 -0.34375,0.32813 -0.10938,0.1875 -0.10938,0.4375 0,0.26562 0.125,0.48437 0.125,0.21875 0.35938,0.35938 0.25,0.125 0.59375,0.125 0.4375,0 0.78125,-0.1875 0.34375,-0.1875 0.53125,-0.45313 0.20312,-0.28125 0.21875,-0.53125 l 0.42187,0.45313 q -0.0469,0.21875 -0.20312,0.48437 -0.15625,0.26563 -0.4375,0.51563 -0.26563,0.23437 -0.64063,0.40625 -0.35937,0.15625 -0.8125,0.15625 -0.5625,0 -1,-0.21875 -0.42187,-0.23438 -0.67187,-0.60938 -0.23438,-0.375 -0.23438,-0.84375 0,-0.45312 0.17188,-0.79687 0.1875,-0.34375 0.51562,-0.57813 0.34375,-0.23437 0.8125,-0.34375 0.46875,-0.125 1.03125,-0.125 z m 3.35892,-2.21875 v 5.625 h -0.96875 v -5.625 z m -1.04688,-1.5 q 0,-0.23437 0.14063,-0.39062 0.15625,-0.17188 0.4375,-0.17188 0.26562,0 0.40625,0.17188 0.15625,0.15625 0.15625,0.39062 0,0.21875 -0.15625,0.39063 -0.14063,0.15625 -0.40625,0.15625 -0.28125,0 -0.4375,-0.15625 -0.14063,-0.17188 -0.14063,-0.39063 z m 3.63809,-0.875 v 8 H 496.216 v -8 z m 2.59122,2.375 v 5.625 h -0.96875 v -5.625 z m -1.04687,-1.5 q 0,-0.23437 0.14062,-0.39062 0.15625,-0.17188 0.4375,-0.17188 0.26563,0 0.40625,0.17188 0.15625,0.15625 0.15625,0.39062 0,0.21875 -0.15625,0.39063 -0.14062,0.15625 -0.40625,0.15625 -0.28125,0 -0.4375,-0.15625 -0.14062,-0.17188 -0.14062,-0.39063 z m 3.55996,2.70313 v 4.42187 h -0.96875 v -5.625 h 0.90625 z m -0.23437,1.39062 -0.40625,-0.0156 q 0.0156,-0.57813 0.17187,-1.0625 0.17188,-0.5 0.46875,-0.85938 0.3125,-0.35937 0.71875,-0.5625 0.42188,-0.20312 0.9375,-0.20312 0.40625,0 0.73438,0.10937 0.34375,0.10938 0.57812,0.35938 0.23438,0.25 0.35938,0.64062 0.125,0.375 0.125,0.9375 v 3.6875 h -0.96875 v -3.70312 q 0,-0.4375 -0.125,-0.70313 -0.125,-0.26562 -0.375,-0.39062 -0.25,-0.125 -0.625,-0.125 -0.35938,0 -0.65625,0.15625 -0.28125,0.14062 -0.5,0.40625 -0.20313,0.26562 -0.32813,0.60937 -0.10937,0.34375 -0.10937,0.71875 z m 8.79114,-2.59375 h 0.875 v 5.5 q 0,0.75 -0.29688,1.26563 -0.29687,0.53125 -0.84375,0.79687 -0.53125,0.28125 -1.23437,0.28125 -0.29688,0 -0.6875,-0.0937 -0.39063,-0.0781 -0.76563,-0.29687 -0.375,-0.21875 -0.64062,-0.57813 l 0.51562,-0.57812 q 0.34375,0.42187 0.73438,0.59375 0.39062,0.17187 0.76562,0.17187 0.45313,0 0.78125,-0.17187 0.34375,-0.17188 0.53125,-0.51563 0.1875,-0.32812 0.1875,-0.82812 v -4.3125 z m -3.875,2.875 v -0.10937 q 0,-0.64063 0.15625,-1.17188 0.15625,-0.53125 0.4375,-0.90625 0.29687,-0.39062 0.70312,-0.59375 0.42188,-0.20312 0.92188,-0.20312 0.53125,0 0.92187,0.1875 0.40625,0.1875 0.6875,0.54687 0.28125,0.34375 0.4375,0.84375 0.17188,0.48438 0.23438,1.10938 v 0.46875 q -0.0625,0.625 -0.23438,1.125 -0.15625,0.48437 -0.4375,0.84375 -0.28125,0.34375 -0.6875,0.53125 -0.39062,0.1875 -0.92187,0.1875 -0.5,0 -0.92188,-0.21875 -0.40625,-0.21875 -0.70312,-0.59375 -0.28125,-0.39063 -0.4375,-0.90625 -0.15625,-0.53125 -0.15625,-1.14063 z m 0.96875,-0.10937 v 0.10937 q 0,0.42188 0.0781,0.79688 0.0937,0.35937 0.26563,0.64062 0.1875,0.28125 0.46875,0.4375 0.28125,0.15625 0.67187,0.15625 0.46875,0 0.78125,-0.20312 0.3125,-0.20313 0.5,-0.53125 0.1875,-0.32813 0.29688,-0.71875 v -1.25 q -0.0625,-0.29688 -0.1875,-0.5625 -0.10938,-0.26563 -0.29688,-0.46875 -0.1875,-0.21875 -0.45312,-0.34375 -0.26563,-0.125 -0.64063,-0.125 -0.39062,0 -0.67187,0.17187 -0.28125,0.15625 -0.46875,0.4375 -0.17188,0.28125 -0.26563,0.65625 -0.0781,0.375 -0.0781,0.79688 z"
         fill-rule="nonzero"
         id="path2769" />
      <path
         fill="#ffffff"
         d="m 457.18872,315.25284 v 0.73437 h -3.04688 v -0.73437 z m -2.01563,-1.375 h 0.96875 v 5.60937 q 0,0.28125 0.0781,0.4375 0.0937,0.14063 0.23437,0.1875 0.14063,0.0469 0.29688,0.0469 0.125,0 0.25,-0.0156 0.14062,-0.0312 0.20312,-0.0469 v 0.78125 q -0.10937,0.0312 -0.29687,0.0625 -0.17188,0.0469 -0.4375,0.0469 -0.35938,0 -0.65625,-0.14062 -0.29688,-0.14063 -0.46875,-0.46875 -0.17188,-0.34375 -0.17188,-0.90625 z m 5.47056,7.10937 q -0.57813,0 -1.0625,-0.20312 -0.46875,-0.20313 -0.8125,-0.5625 -0.34375,-0.375 -0.53125,-0.875 -0.17188,-0.5 -0.17188,-1.09375 v -0.20313 q 0,-0.6875 0.20313,-1.21875 0.20312,-0.54687 0.54687,-0.92187 0.35938,-0.375 0.79688,-0.5625 0.4375,-0.20313 0.90625,-0.20313 0.60937,0 1.04687,0.21875 0.4375,0.20313 0.71875,0.57813 0.28125,0.35937 0.42188,0.875 0.14062,0.5 0.14062,1.09375 v 0.42187 h -4.20312 v -0.78125 h 3.23437 v -0.0781 q -0.0156,-0.375 -0.15625,-0.71875 -0.125,-0.35938 -0.42187,-0.57813 -0.28125,-0.23437 -0.78125,-0.23437 -0.3125,0 -0.59375,0.14062 -0.28125,0.125 -0.48438,0.40625 -0.1875,0.26563 -0.29687,0.65625 -0.10938,0.39063 -0.10938,0.90625 v 0.20313 q 0,0.40625 0.10938,0.76562 0.10937,0.34375 0.32812,0.60938 0.21875,0.26562 0.51563,0.42187 0.3125,0.14063 0.71875,0.14063 0.5,0 0.85937,-0.20313 0.35938,-0.20312 0.625,-0.5625 l 0.57813,0.46875 q -0.1875,0.28125 -0.46875,0.53125 -0.28125,0.25 -0.6875,0.40625 -0.40625,0.15625 -0.96875,0.15625 z m 6.60385,-1.60937 q 0,-0.20313 -0.0937,-0.375 -0.0937,-0.1875 -0.375,-0.32813 -0.28125,-0.15625 -0.82813,-0.26562 -0.46875,-0.0937 -0.84375,-0.21875 -0.375,-0.14063 -0.64062,-0.32813 -0.26563,-0.20312 -0.40625,-0.45312 -0.14063,-0.26563 -0.14063,-0.625 0,-0.32813 0.14063,-0.625 0.15625,-0.29688 0.42187,-0.51563 0.28125,-0.23437 0.65625,-0.35937 0.39063,-0.14063 0.85938,-0.14063 0.6875,0 1.15625,0.25 0.48437,0.23438 0.73437,0.64063 0.26563,0.39062 0.26563,0.875 h -0.9688 q 0,-0.23438 -0.14063,-0.45313 -0.14062,-0.23437 -0.40625,-0.375 -0.25,-0.14062 -0.64062,-0.14062 -0.39063,0 -0.64063,0.125 -0.25,0.10937 -0.35937,0.29687 -0.10938,0.1875 -0.10938,0.40625 0,0.15625 0.0469,0.28125 0.0625,0.10938 0.20312,0.21875 0.14063,0.0937 0.39063,0.1875 0.26562,0.0937 0.65625,0.17188 0.6875,0.15625 1.125,0.375 0.45312,0.21875 0.67187,0.54687 0.21875,0.3125 0.21875,0.76563 0,0.35937 -0.15625,0.67187 -0.14062,0.3125 -0.4375,0.53125 -0.28125,0.21875 -0.6875,0.34375 -0.39062,0.125 -0.89062,0.125 -0.73438,0 -1.25,-0.26562 -0.51563,-0.26563 -0.78125,-0.6875 -0.26563,-0.42188 -0.26563,-0.89063 h 0.96875 q 0.0156,0.39063 0.21875,0.625 0.21875,0.23438 0.51563,0.32813 0.29687,0.0937 0.59375,0.0937 0.39062,0 0.65625,-0.0937 0.28125,-0.10938 0.42187,-0.29688 0.14063,-0.1875 0.14063,-0.42187 z m 4.57797,-4.125 v 0.73437 h -3.04688 v -0.73437 z m -2.01563,-1.375 h 0.96875 v 5.60937 q 0,0.28125 0.0781,0.4375 0.0937,0.14063 0.23437,0.1875 0.14063,0.0469 0.29688,0.0469 0.125,0 0.25,-0.0156 0.14062,-0.0312 0.20312,-0.0469 v 0.78125 q -0.10937,0.0312 -0.29687,0.0625 -0.17188,0.0469 -0.4375,0.0469 -0.35938,0 -0.65625,-0.14062 -0.29688,-0.14063 -0.46875,-0.46875 -0.17188,-0.34375 -0.17188,-0.90625 z m 7.22318,7 h -0.96875 v -6.21875 q 0,-0.60938 0.21875,-1.03125 0.23437,-0.42188 0.64062,-0.625 0.42188,-0.21875 0.98438,-0.21875 0.17187,0 0.34375,0.0156 0.17187,0.0156 0.32812,0.0625 l -0.0469,0.78125 q -0.10938,-0.0312 -0.25,-0.0312 -0.14063,-0.0156 -0.28125,-0.0156 -0.29688,0 -0.51563,0.125 -0.21875,0.125 -0.34375,0.35937 -0.10937,0.23438 -0.10937,0.57813 z m 1.1875,-5.625 v 0.73437 h -3.04688 v -0.73437 z m 0.82971,2.875 v -0.125 q 0,-0.60938 0.17188,-1.125 0.17187,-0.53125 0.5,-0.90625 0.34375,-0.39063 0.8125,-0.60938 0.48437,-0.21875 1.0625,-0.21875 0.59375,0 1.0625,0.21875 0.48437,0.21875 0.8125,0.60938 0.34375,0.375 0.51562,0.90625 0.1875,0.51562 0.1875,1.125 v 0.125 q 0,0.60937 -0.1875,1.125 -0.17187,0.51562 -0.51562,0.90625 -0.32813,0.39062 -0.79688,0.60937 -0.46875,0.21875 -1.0625,0.21875 -0.59375,0 -1.07812,-0.21875 -0.46875,-0.21875 -0.8125,-0.60937 -0.32813,-0.39063 -0.5,-0.90625 -0.17188,-0.51563 -0.17188,-1.125 z m 0.95313,-0.125 v 0.125 q 0,0.42187 0.0937,0.79687 0.10937,0.35938 0.3125,0.65625 0.20312,0.28125 0.5,0.45313 0.29687,0.15625 0.70312,0.15625 0.39063,0 0.6875,-0.15625 0.29688,-0.17188 0.5,-0.45313 0.20313,-0.29687 0.29688,-0.65625 0.10937,-0.375 0.10937,-0.79687 v -0.125 q 0,-0.40625 -0.10937,-0.78125 -0.0937,-0.375 -0.29688,-0.65625 -0.20312,-0.29688 -0.5,-0.45313 -0.29687,-0.17187 -0.70312,-0.17187 -0.39063,0 -0.6875,0.17187 -0.29688,0.15625 -0.5,0.45313 -0.20313,0.28125 -0.3125,0.65625 -0.0937,0.375 -0.0937,0.78125 z m 6.34301,-1.875 v 4.75 h -0.96875 v -5.625 h 0.9375 z m 1.75,-0.90625 v 0.89062 q -0.125,-0.0312 -0.23437,-0.0312 -0.10938,-0.0156 -0.23438,-0.0156 -0.32812,0 -0.59375,0.10937 -0.25,0.10938 -0.4375,0.29688 -0.17187,0.1875 -0.28125,0.45312 -0.0937,0.25 -0.125,0.54688 l -0.26562,0.15625 q 0,-0.5 0.0937,-0.95313 0.10937,-0.45312 0.3125,-0.79687 0.21875,-0.34375 0.54687,-0.53125 0.34375,-0.20313 0.79688,-0.20313 0.0937,0 0.23437,0.0312 0.14063,0.0156 0.1875,0.0469 z m 5.89493,0.0312 v 0.73437 h -3.04687 v -0.73437 z m -2.01562,-1.375 h 0.96875 v 5.60937 q 0,0.28125 0.0781,0.4375 0.0937,0.14063 0.23438,0.1875 0.14062,0.0469 0.29687,0.0469 0.125,0 0.25,-0.0156 0.14063,-0.0312 0.20313,-0.0469 v 0.78125 q -0.10938,0.0312 -0.29688,0.0625 -0.17187,0.0469 -0.4375,0.0469 -0.35937,0 -0.65625,-0.14062 -0.29687,-0.14063 -0.46875,-0.46875 -0.17187,-0.34375 -0.17187,-0.90625 z m 4.11117,-1 v 8 h -0.96875 v -8 z m -0.23437,4.96875 -0.40625,-0.0156 q 0.0156,-0.57812 0.17187,-1.0625 0.17188,-0.5 0.46875,-0.85937 0.3125,-0.35938 0.71875,-0.5625 0.42188,-0.20313 0.9375,-0.20313 0.40625,0 0.73438,0.10938 0.34375,0.10937 0.57812,0.35937 0.23438,0.25 0.35938,0.64063 0.125,0.375 0.125,0.9375 v 3.6875 h -0.96875 v -3.70313 q 0,-0.4375 -0.125,-0.70312 -0.125,-0.26563 -0.375,-0.39063 -0.25,-0.125 -0.625,-0.125 -0.35938,0 -0.65625,0.15625 -0.28125,0.14063 -0.5,0.40625 -0.20313,0.26563 -0.32813,0.60938 -0.10937,0.34375 -0.10937,0.71875 z m 7.46301,3.14062 q -0.57813,0 -1.0625,-0.20312 -0.46875,-0.20313 -0.8125,-0.5625 -0.34375,-0.375 -0.53125,-0.875 -0.17188,-0.5 -0.17188,-1.09375 v -0.20313 q 0,-0.6875 0.20313,-1.21875 0.20312,-0.54687 0.54687,-0.92187 0.35938,-0.375 0.79688,-0.5625 0.4375,-0.20313 0.90625,-0.20313 0.60937,0 1.04687,0.21875 0.4375,0.20313 0.71875,0.57813 0.28125,0.35937 0.42188,0.875 0.14062,0.5 0.14062,1.09375 v 0.42187 h -4.20312 v -0.78125 h 3.23437 v -0.0781 q -0.0156,-0.375 -0.15625,-0.71875 -0.125,-0.35938 -0.42187,-0.57813 -0.28125,-0.23437 -0.78125,-0.23437 -0.3125,0 -0.59375,0.14062 -0.28125,0.125 -0.48438,0.40625 -0.1875,0.26563 -0.29687,0.65625 -0.10938,0.39063 -0.10938,0.90625 v 0.20313 q 0,0.40625 0.10938,0.76562 0.10937,0.34375 0.32812,0.60938 0.21875,0.26562 0.51563,0.42187 0.3125,0.14063 0.71875,0.14063 0.5,0 0.85937,-0.20313 0.35938,-0.20312 0.625,-0.5625 l 0.57813,0.46875 q -0.1875,0.28125 -0.46875,0.53125 -0.28125,0.25 -0.6875,0.40625 -0.40625,0.15625 -0.96875,0.15625 z"
         fill-rule="nonzero"
         id="path2771" />
      <path
         fill="#ffffff"
         d="m 452.87695,333.87784 h -0.96875 v -6.21875 q 0,-0.60938 0.21875,-1.03125 0.23438,-0.42188 0.64063,-0.625 0.42187,-0.21875 0.98437,-0.21875 0.17188,0 0.34375,0.0156 0.17188,0.0156 0.32813,0.0625 l -0.0469,0.78125 q -0.10937,-0.0312 -0.25,-0.0312 -0.14062,-0.0156 -0.28125,-0.0156 -0.29687,0 -0.51562,0.125 -0.21875,0.125 -0.34375,0.35937 -0.10938,0.23438 -0.10938,0.57813 z m 1.1875,-5.625 v 0.73437 h -3.04687 v -0.73437 z m 4.51721,4.32812 v -4.32812 h 0.96875 v 5.625 h -0.92187 z m 0.1875,-1.1875 0.40625,-0.0156 q 0,0.5625 -0.125,1.04687 -0.10937,0.46875 -0.375,0.82813 -0.26562,0.34375 -0.6875,0.54687 -0.42187,0.1875 -1.01562,0.1875 -0.40625,0 -0.75,-0.125 -0.34375,-0.125 -0.59375,-0.375 -0.23438,-0.25 -0.375,-0.64062 -0.125,-0.40625 -0.125,-0.96875 v -3.625 h 0.95312 v 3.64062 q 0,0.375 0.0781,0.625 0.0937,0.25 0.23437,0.39063 0.15625,0.14062 0.34375,0.20312 0.1875,0.0469 0.375,0.0469 0.625,0 0.98438,-0.23438 0.35937,-0.23437 0.51562,-0.64062 0.15625,-0.40625 0.15625,-0.89063 z m 3.2182,-1.9375 v 4.42188 h -0.96875 v -5.625 h 0.90625 z m -0.23437,1.39063 -0.40625,-0.0156 q 0.0156,-0.57812 0.17187,-1.0625 0.17188,-0.5 0.46875,-0.85937 0.3125,-0.35938 0.71875,-0.5625 0.42188,-0.20313 0.9375,-0.20313 0.40625,0 0.73438,0.10938 0.34375,0.10937 0.57812,0.35937 0.23438,0.25 0.35938,0.64063 0.125,0.375 0.125,0.9375 v 3.6875 h -0.96875 v -3.70313 q 0,-0.4375 -0.125,-0.70312 -0.125,-0.26563 -0.375,-0.39063 -0.25,-0.125 -0.625,-0.125 -0.35938,0 -0.65625,0.15625 -0.28125,0.14063 -0.5,0.40625 -0.20313,0.26563 -0.32813,0.60938 -0.10937,0.34375 -0.10937,0.71875 z m 7.40051,2.34375 q 0.34375,0 0.625,-0.14063 0.29688,-0.14062 0.48438,-0.39062 0.1875,-0.25 0.21875,-0.5625 h 0.92187 q -0.0312,0.5 -0.34375,0.9375 -0.3125,0.42187 -0.8125,0.6875 -0.5,0.26562 -1.09375,0.26562 -0.625,0 -1.10937,-0.21875 -0.46875,-0.23437 -0.78125,-0.625 -0.29688,-0.39062 -0.45313,-0.89062 -0.15625,-0.51563 -0.15625,-1.07813 v -0.21875 q 0,-0.5625 0.15625,-1.0625 0.15625,-0.51562 0.45313,-0.90625 0.3125,-0.39062 0.78125,-0.60937 0.48437,-0.23438 1.10937,-0.23438 0.65625,0 1.15625,0.26563 0.5,0.26562 0.78125,0.73437 0.28125,0.45313 0.3125,1.04688 h -0.92187 q -0.0312,-0.35938 -0.20313,-0.64063 -0.15625,-0.28125 -0.45312,-0.4375 -0.28125,-0.17187 -0.67188,-0.17187 -0.4375,0 -0.73437,0.17187 -0.29688,0.17188 -0.48438,0.46875 -0.17187,0.29688 -0.25,0.65625 -0.0625,0.34375 -0.0625,0.71875 v 0.21875 q 0,0.35938 0.0625,0.71875 0.0781,0.35938 0.25,0.65625 0.17188,0.29688 0.46875,0.46875 0.3125,0.17188 0.75,0.17188 z m 5.68726,-4.9375 v 0.73437 h -3.04688 v -0.73437 z m -2.01563,-1.375 h 0.96875 v 5.60937 q 0,0.28125 0.0781,0.4375 0.0937,0.14063 0.23437,0.1875 0.14063,0.0469 0.29688,0.0469 0.125,0 0.25,-0.0156 0.14062,-0.0312 0.20312,-0.0469 v 0.78125 q -0.10937,0.0312 -0.29687,0.0625 -0.17188,0.0469 -0.4375,0.0469 -0.35938,0 -0.65625,-0.14062 -0.29688,-0.14063 -0.46875,-0.46875 -0.17188,-0.34375 -0.17188,-0.90625 z m 4.1893,1.375 v 5.625 h -0.96875 v -5.625 z m -1.04687,-1.5 q 0,-0.23438 0.14062,-0.39063 0.15625,-0.17187 0.4375,-0.17187 0.26563,0 0.40625,0.17187 0.15625,0.15625 0.15625,0.39063 0,0.21875 -0.15625,0.39062 -0.14062,0.15625 -0.40625,0.15625 -0.28125,0 -0.4375,-0.15625 -0.14062,-0.17187 -0.14062,-0.39062 z m 2.34121,4.375 v -0.125 q 0,-0.60938 0.17188,-1.125 0.17187,-0.53125 0.5,-0.90625 0.34375,-0.39063 0.8125,-0.60938 0.48437,-0.21875 1.0625,-0.21875 0.59375,0 1.0625,0.21875 0.48437,0.21875 0.8125,0.60938 0.34375,0.375 0.51562,0.90625 0.1875,0.51562 0.1875,1.125 v 0.125 q 0,0.60937 -0.1875,1.125 -0.17187,0.51562 -0.51562,0.90625 -0.32813,0.39062 -0.79688,0.60937 -0.46875,0.21875 -1.0625,0.21875 -0.59375,0 -1.07812,-0.21875 -0.46875,-0.21875 -0.8125,-0.60937 -0.32813,-0.39063 -0.5,-0.90625 -0.17188,-0.51563 -0.17188,-1.125 z m 0.95313,-0.125 v 0.125 q 0,0.42187 0.0937,0.79687 0.10937,0.35938 0.3125,0.65625 0.20312,0.28125 0.5,0.45313 0.29687,0.15625 0.70312,0.15625 0.39063,0 0.6875,-0.15625 0.29688,-0.17188 0.5,-0.45313 0.20313,-0.29687 0.29688,-0.65625 0.10937,-0.375 0.10937,-0.79687 v -0.125 q 0,-0.40625 -0.10937,-0.78125 -0.0937,-0.375 -0.29688,-0.65625 -0.20312,-0.29688 -0.5,-0.45313 -0.29687,-0.17187 -0.70312,-0.17187 -0.39063,0 -0.6875,0.17187 -0.29688,0.15625 -0.5,0.45313 -0.20313,0.28125 -0.3125,0.65625 -0.0937,0.375 -0.0937,0.78125 z m 6.34302,-1.54688 v 4.42188 h -0.96875 v -5.625 h 0.90625 z m -0.23438,1.39063 -0.40625,-0.0156 q 0.0156,-0.57812 0.17188,-1.0625 0.17187,-0.5 0.46875,-0.85937 0.3125,-0.35938 0.71875,-0.5625 0.42187,-0.20313 0.9375,-0.20313 0.40625,0 0.73437,0.10938 0.34375,0.10937 0.57813,0.35937 0.23437,0.25 0.35937,0.64063 0.125,0.375 0.125,0.9375 v 3.6875 h -0.96875 v -3.70313 q 0,-0.4375 -0.125,-0.70312 -0.125,-0.26563 -0.375,-0.39063 -0.25,-0.125 -0.625,-0.125 -0.35937,0 -0.65625,0.15625 -0.28125,0.14063 -0.5,0.40625 -0.20312,0.26563 -0.32812,0.60938 -0.10938,0.34375 -0.10938,0.71875 z m 8.46298,2.0625 v -2.89063 q 0,-0.32812 -0.14062,-0.57812 -0.125,-0.25 -0.39063,-0.375 -0.26562,-0.14063 -0.65625,-0.14063 -0.35937,0 -0.64062,0.125 -0.26563,0.125 -0.42188,0.32813 -0.14062,0.20312 -0.14062,0.4375 h -0.96875 q 0,-0.3125 0.15625,-0.60938 0.15625,-0.29687 0.45312,-0.53125 0.29688,-0.25 0.70313,-0.39062 0.42187,-0.14063 0.92187,-0.14063 0.60938,0 1.07813,0.21875 0.48437,0.20313 0.75,0.625 0.26562,0.40625 0.26562,1.04688 v 2.60937 q 0,0.28125 0.0469,0.60938 0.0469,0.3125 0.15625,0.54687 v 0.0781 h -1.01563 q -0.0625,-0.17188 -0.10937,-0.4375 -0.0469,-0.28125 -0.0469,-0.53125 z m 0.17188,-2.4375 0.0156,0.67187 h -0.98437 q -0.40625,0 -0.73438,0.0625 -0.3125,0.0625 -0.53125,0.20313 -0.21875,0.125 -0.34375,0.32812 -0.10937,0.1875 -0.10937,0.4375 0,0.26563 0.125,0.48438 0.125,0.21875 0.35937,0.35937 0.25,0.125 0.59375,0.125 0.4375,0 0.78125,-0.1875 0.34375,-0.1875 0.53125,-0.45312 0.20313,-0.28125 0.21875,-0.53125 l 0.42188,0.45312 q -0.0469,0.21875 -0.20313,0.48438 -0.15625,0.26562 -0.4375,0.51562 -0.26562,0.23438 -0.64062,0.40625 -0.35938,0.15625 -0.8125,0.15625 -0.5625,0 -1,-0.21875 -0.42188,-0.23437 -0.67188,-0.60937 -0.23437,-0.375 -0.23437,-0.84375 0,-0.45313 0.17187,-0.79688 0.1875,-0.34375 0.51563,-0.57812 0.34375,-0.23438 0.8125,-0.34375 0.46875,-0.125 1.03125,-0.125 z m 3.35892,-4.59375 v 8 h -0.96875 v -8 z m 2.59121,2.375 v 5.625 h -0.96875 v -5.625 z m -1.04687,-1.5 q 0,-0.23438 0.14062,-0.39063 0.15625,-0.17187 0.4375,-0.17187 0.26563,0 0.40625,0.17187 0.15625,0.15625 0.15625,0.39063 0,0.21875 -0.15625,0.39062 -0.14062,0.15625 -0.40625,0.15625 -0.28125,0 -0.4375,-0.15625 -0.14062,-0.17187 -0.14062,-0.39062 z m 4.95059,1.5 v 0.73437 h -3.04688 v -0.73437 z m -2.01563,-1.375 h 0.96875 v 5.60937 q 0,0.28125 0.0781,0.4375 0.0937,0.14063 0.23437,0.1875 0.14063,0.0469 0.29688,0.0469 0.125,0 0.25,-0.0156 0.14062,-0.0312 0.20312,-0.0469 v 0.78125 q -0.10937,0.0312 -0.29687,0.0625 -0.17188,0.0469 -0.4375,0.0469 -0.35938,0 -0.65625,-0.14062 -0.29688,-0.14063 -0.46875,-0.46875 -0.17188,-0.34375 -0.17188,-0.90625 z m 4.72056,6.42187 1.5625,-5.04687 h 1.03125 l -2.25,6.5 q -0.0781,0.20312 -0.20313,0.4375 -0.125,0.25 -0.32812,0.46875 -0.20313,0.21875 -0.48438,0.35937 -0.26562,0.14063 -0.65625,0.14063 -0.10937,0 -0.29687,-0.0312 -0.17188,-0.0312 -0.25,-0.0625 v -0.78125 q 0.0469,0.0156 0.125,0.0156 0.0937,0.0156 0.14062,0.0156 0.32813,0 0.54688,-0.0937 0.23437,-0.0781 0.39062,-0.28125 0.15625,-0.20313 0.28125,-0.54688 z m -1.14063,-5.04687 1.45313,4.35937 0.25,1.01563 -0.6875,0.35937 -2.07813,-5.73437 z"
         fill-rule="nonzero"
         id="path2773" />
    </g>
    <defs
       id="defs2793">
      <filter
         id="shadowFilter-g1fdf626aaf9_0_0.7"
         filterUnits="userSpaceOnUse">
        <feGaussianBlur
           in="SourceAlpha"
           stdDeviation="2.0"
           result="blur"
           id="feGaussianBlur2780" />
        <feComponentTransfer
           in="blur"
           color-interpolation-filters="sRGB"
           id="feComponentTransfer2790">
          <feFuncR
             type="linear"
             slope="0"
             intercept="0.0"
             id="feFuncR2782" />
          <feFuncG
             type="linear"
             slope="0"
             intercept="0.0"
             id="feFuncG2784" />
          <feFuncB
             type="linear"
             slope="0"
             intercept="0.0"
             id="feFuncB2786" />
          <feFuncA
             type="linear"
             slope="0.5"
             intercept="0"
             id="feFuncA2788" />
        </feComponentTransfer>
      </filter>
    </defs>
    <g
       id="g1fdf626aaf9_0_0.7">
      <path
         fill="#660000"
         d="m 436.0178,270.00113 h 87.96439 c 0.82391,0 1.61401,0.32727 2.19659,0.90982 0.58252,0.58258 0.90979,1.37268 0.90979,2.19656 v 15.53156 c 0,4.3e-4 -3e-4,7.9e-4 -7.3e-4,7.9e-4 l -94.17642,-7.9e-4 c -4.3e-4,0 -8e-4,-3.4e-4 -8e-4,-7.6e-4 l 8e-4,-15.5308 c 0,-1.7156 1.39078,-3.10638 3.10638,-3.10638 z"
         fill-rule="evenodd"
         id="path2795" />
      <path
         fill="#ffffff"
         d="m 473.43213,275.9369 v 7.57812 h -0.98438 v -7.57812 z m 2.4375,0 v 0.82812 h -5.84375 v -0.82812 z m 2.79587,7.6875 q -0.57813,0 -1.0625,-0.20313 -0.46875,-0.20312 -0.8125,-0.5625 -0.34375,-0.375 -0.53125,-0.875 -0.17188,-0.5 -0.17188,-1.09375 v -0.20312 q 0,-0.6875 0.20313,-1.21875 0.20312,-0.54688 0.54687,-0.92188 0.35938,-0.375 0.79688,-0.5625 0.4375,-0.20312 0.90625,-0.20312 0.60937,0 1.04687,0.21875 0.4375,0.20312 0.71875,0.57812 0.28125,0.35938 0.42188,0.875 0.14062,0.5 0.14062,1.09375 v 0.42188 h -4.20312 v -0.78125 h 3.23437 v -0.0781 q -0.0156,-0.375 -0.15625,-0.71875 -0.125,-0.35937 -0.42187,-0.57812 -0.28125,-0.23438 -0.78125,-0.23438 -0.3125,0 -0.59375,0.14063 -0.28125,0.125 -0.48438,0.40625 -0.1875,0.26562 -0.29687,0.65625 -0.10938,0.39062 -0.10938,0.90625 v 0.20312 q 0,0.40625 0.10938,0.76563 0.10937,0.34375 0.32812,0.60937 0.21875,0.26563 0.51563,0.42188 0.3125,0.14062 0.71875,0.14062 0.5,0 0.85937,-0.20312 0.35938,-0.20313 0.625,-0.5625 l 0.57813,0.46875 q -0.1875,0.28125 -0.46875,0.53125 -0.28125,0.25 -0.6875,0.40625 -0.40625,0.15625 -0.96875,0.15625 z m 6.60385,-1.60938 q 0,-0.20312 -0.0937,-0.375 -0.0937,-0.1875 -0.375,-0.32812 -0.28125,-0.15625 -0.82813,-0.26563 -0.46875,-0.0937 -0.84375,-0.21875 -0.375,-0.14062 -0.64062,-0.32812 -0.26563,-0.20313 -0.40625,-0.45313 -0.14063,-0.26562 -0.14063,-0.625 0,-0.32812 0.14063,-0.625 0.15625,-0.29687 0.42187,-0.51562 0.28125,-0.23438 0.65625,-0.35938 0.39063,-0.14062 0.85938,-0.14062 0.6875,0 1.15625,0.25 0.48437,0.23437 0.73437,0.64062 0.26563,0.39063 0.26563,0.875 h -0.96875 q 0,-0.23437 -0.14063,-0.45312 -0.14062,-0.23438 -0.40625,-0.375 -0.25,-0.14063 -0.64062,-0.14063 -0.39063,0 -0.64063,0.125 -0.25,0.10938 -0.35937,0.29688 -0.10938,0.1875 -0.10938,0.40625 0,0.15625 0.0469,0.28125 0.0625,0.10937 0.20312,0.21875 0.14063,0.0937 0.39063,0.1875 0.26562,0.0937 0.65625,0.17187 0.6875,0.15625 1.125,0.375 0.45312,0.21875 0.67187,0.54688 0.21875,0.3125 0.21875,0.76562 0,0.35938 -0.15625,0.67188 -0.14062,0.3125 -0.4375,0.53125 -0.28125,0.21875 -0.6875,0.34375 -0.39062,0.125 -0.89062,0.125 -0.73438,0 -1.25,-0.26563 -0.51563,-0.26562 -0.78125,-0.6875 -0.26563,-0.42187 -0.26563,-0.89062 h 0.96875 q 0.0156,0.39062 0.21875,0.625 0.21875,0.23437 0.51563,0.32812 0.29687,0.0937 0.59375,0.0937 0.39062,0 0.65625,-0.0937 0.28125,-0.10937 0.42187,-0.29687 0.14063,-0.1875 0.14063,-0.42188 z m 4.57797,-4.125 v 0.73438 h -3.04687 v -0.73438 z m -2.01562,-1.375 h 0.96875 v 5.60938 q 0,0.28125 0.0781,0.4375 0.0937,0.14062 0.23438,0.1875 0.14062,0.0469 0.29687,0.0469 0.125,0 0.25,-0.0156 0.14063,-0.0312 0.20313,-0.0469 v 0.78125 q -0.10938,0.0312 -0.29688,0.0625 -0.17187,0.0469 -0.4375,0.0469 -0.35937,0 -0.65625,-0.14063 -0.29687,-0.14062 -0.46875,-0.46875 -0.17187,-0.34375 -0.17187,-0.90625 z"
         fill-rule="nonzero"
         id="path2797" />
    </g>
    <defs
       id="defs2817">
      <filter
         id="shadowFilter-g1fdf626aaf9_0_0.8"
         filterUnits="userSpaceOnUse">
        <feGaussianBlur
           in="SourceAlpha"
           stdDeviation="2.0"
           result="blur"
           id="feGaussianBlur2804" />
        <feComponentTransfer
           in="blur"
           color-interpolation-filters="sRGB"
           id="feComponentTransfer2814">
          <feFuncR
             type="linear"
             slope="0"
             intercept="0.0"
             id="feFuncR2806" />
          <feFuncG
             type="linear"
             slope="0"
             intercept="0.0"
             id="feFuncG2808" />
          <feFuncB
             type="linear"
             slope="0"
             intercept="0.0"
             id="feFuncB2810" />
          <feFuncA
             type="linear"
             slope="0.5"
             intercept="0"
             id="feFuncA2812" />
        </feComponentTransfer>
      </filter>
    </defs>
    <g
       id="g1fdf626aaf9_0_0.8">
      <path
         fill="#1155cc"
         d="m 338.7349,400.69025 h 94.17718 v 60.13193 H 338.7349 Z"
         fill-rule="evenodd"
         id="path2819" />
      <path
         fill="#ffffff"
         d="m 360.46384,412.35214 h 2.51562 q 0.84375,0 1.4375,0.26563 0.59375,0.25 0.90625,0.76562 0.3125,0.5 0.3125,1.25 0,0.51563 -0.21875,0.95313 -0.20312,0.42187 -0.60937,0.71875 -0.39063,0.29687 -0.9375,0.45312 l -0.28125,0.10938 h -2.34375 l -0.0156,-0.82813 h 1.78125 q 0.53125,0 0.89063,-0.1875 0.35937,-0.1875 0.54687,-0.5 0.1875,-0.32812 0.1875,-0.71875 0,-0.4375 -0.17187,-0.76562 -0.17188,-0.32813 -0.54688,-0.5 -0.35937,-0.1875 -0.9375,-0.1875 h -1.5 v 6.75 h -1.01562 z m 4.4375,7.57813 -1.84375,-3.4375 h 1.04687 l 1.85938,3.375 v 0.0625 z m 4.3165,0.10937 q -0.57813,0 -1.0625,-0.20312 -0.46875,-0.20313 -0.8125,-0.5625 -0.34375,-0.375 -0.53125,-0.875 -0.17188,-0.5 -0.17188,-1.09375 v -0.20313 q 0,-0.6875 0.20313,-1.21875 0.20312,-0.54687 0.54687,-0.92187 0.35938,-0.375 0.79688,-0.5625 0.4375,-0.20313 0.90625,-0.20313 0.60937,0 1.04687,0.21875 0.4375,0.20313 0.71875,0.57813 0.28125,0.35937 0.42188,0.875 0.14062,0.5 0.14062,1.09375 v 0.42187 h -4.20312 v -0.78125 h 3.23437 v -0.0781 q -0.0156,-0.375 -0.15625,-0.71875 -0.125,-0.35938 -0.42187,-0.57813 -0.28125,-0.23437 -0.78125,-0.23437 -0.3125,0 -0.59375,0.14062 -0.28125,0.125 -0.48438,0.40625 -0.1875,0.26563 -0.29687,0.65625 -0.10938,0.39063 -0.10938,0.90625 v 0.20313 q 0,0.40625 0.10938,0.76562 0.10937,0.34375 0.32812,0.60938 0.21875,0.26562 0.51563,0.42187 0.3125,0.14063 0.71875,0.14063 0.5,0 0.85937,-0.20313 0.35938,-0.20312 0.625,-0.5625 l 0.57813,0.46875 q -0.1875,0.28125 -0.46875,0.53125 -0.28125,0.25 -0.6875,0.40625 -0.40625,0.15625 -0.96875,0.15625 z m 4.7601,-0.10937 h -0.96875 v -6.21875 q 0,-0.60938 0.21875,-1.03125 0.23437,-0.42188 0.64062,-0.625 0.42188,-0.21875 0.98438,-0.21875 0.17187,0 0.34375,0.0156 0.17187,0.0156 0.32812,0.0625 l -0.0469,0.78125 q -0.10938,-0.0312 -0.25,-0.0312 -0.14063,-0.0156 -0.28125,-0.0156 -0.29688,0 -0.51563,0.125 -0.21875,0.125 -0.34375,0.35937 -0.10937,0.23438 -0.10937,0.57813 z m 1.1875,-5.625 v 0.73437 h -3.04688 v -0.73437 z m 4.39221,4.65625 v -2.89063 q 0,-0.32812 -0.14062,-0.57812 -0.125,-0.25 -0.39063,-0.375 -0.26562,-0.14063 -0.65625,-0.14063 -0.35937,0 -0.64062,0.125 -0.26563,0.125 -0.42188,0.32813 -0.14062,0.20312 -0.14062,0.4375 h -0.96875 q 0,-0.3125 0.15625,-0.60938 0.15625,-0.29687 0.45312,-0.53125 0.29688,-0.25 0.70313,-0.39062 0.42187,-0.14063 0.92187,-0.14063 0.60938,0 1.07813,0.21875 0.48437,0.20313 0.75,0.625 0.26562,0.40625 0.26562,1.04688 v 2.60937 q 0,0.28125 0.0469,0.60938 0.0469,0.3125 0.15625,0.54687 v 0.0781 h -1.01563 q -0.0625,-0.17188 -0.10937,-0.4375 -0.0469,-0.28125 -0.0469,-0.53125 z m 0.17188,-2.4375 0.0156,0.67187 h -0.98437 q -0.40625,0 -0.73438,0.0625 -0.3125,0.0625 -0.53125,0.20313 -0.21875,0.125 -0.34375,0.32812 -0.10937,0.1875 -0.10937,0.4375 0,0.26563 0.125,0.48438 0.125,0.21875 0.35937,0.35937 0.25,0.125 0.59375,0.125 0.4375,0 0.78125,-0.1875 0.34375,-0.1875 0.53125,-0.45312 0.20313,-0.28125 0.21875,-0.53125 l 0.42188,0.45312 q -0.0469,0.21875 -0.20313,0.48438 -0.15625,0.26562 -0.4375,0.51562 -0.26562,0.23438 -0.64062,0.40625 -0.35938,0.15625 -0.8125,0.15625 -0.5625,0 -1,-0.21875 -0.42188,-0.23437 -0.67188,-0.60937 -0.23437,-0.375 -0.23437,-0.84375 0,-0.45313 0.17187,-0.79688 0.1875,-0.34375 0.51563,-0.57812 0.34375,-0.23438 0.8125,-0.34375 0.46875,-0.125 1.03125,-0.125 z m 4.56204,2.71875 q 0.34375,0 0.625,-0.14063 0.29687,-0.14062 0.48437,-0.39062 0.1875,-0.25 0.21875,-0.5625 h 0.92188 q -0.0312,0.5 -0.34375,0.9375 -0.3125,0.42187 -0.8125,0.6875 -0.5,0.26562 -1.09375,0.26562 -0.625,0 -1.10938,-0.21875 -0.46875,-0.23437 -0.78125,-0.625 -0.29687,-0.39062 -0.45312,-0.89062 -0.15625,-0.51563 -0.15625,-1.07813 v -0.21875 q 0,-0.5625 0.15625,-1.0625 0.15625,-0.51562 0.45312,-0.90625 0.3125,-0.39062 0.78125,-0.60937 0.48438,-0.23438 1.10938,-0.23438 0.65625,0 1.15625,0.26563 0.5,0.26562 0.78125,0.73437 0.28125,0.45313 0.3125,1.04688 h -0.92188 q -0.0312,-0.35938 -0.20312,-0.64063 -0.15625,-0.28125 -0.45313,-0.4375 -0.28125,-0.17187 -0.67187,-0.17187 -0.4375,0 -0.73438,0.17187 -0.29687,0.17188 -0.48437,0.46875 -0.17188,0.29688 -0.25,0.65625 -0.0625,0.34375 -0.0625,0.71875 v 0.21875 q 0,0.35938 0.0625,0.71875 0.0781,0.35938 0.25,0.65625 0.17187,0.29688 0.46875,0.46875 0.3125,0.17188 0.75,0.17188 z m 5.68725,-4.9375 v 0.73437 h -3.04687 v -0.73437 z m -2.01562,-1.375 h 0.96875 v 5.60937 q 0,0.28125 0.0781,0.4375 0.0937,0.14063 0.23438,0.1875 0.14062,0.0469 0.29687,0.0469 0.125,0 0.25,-0.0156 0.14063,-0.0312 0.20313,-0.0469 v 0.78125 q -0.10938,0.0312 -0.29688,0.0625 -0.17187,0.0469 -0.4375,0.0469 -0.35937,0 -0.65625,-0.14062 -0.29687,-0.14063 -0.46875,-0.46875 -0.17187,-0.34375 -0.17187,-0.90625 z m 2.78824,4.25 v -0.125 q 0,-0.60938 0.17187,-1.125 0.17188,-0.53125 0.5,-0.90625 0.34375,-0.39063 0.8125,-0.60938 0.48438,-0.21875 1.0625,-0.21875 0.59375,0 1.0625,0.21875 0.48438,0.21875 0.8125,0.60938 0.34375,0.375 0.51563,0.90625 0.1875,0.51562 0.1875,1.125 v 0.125 q 0,0.60937 -0.1875,1.125 -0.17188,0.51562 -0.51563,0.90625 -0.32812,0.39062 -0.79687,0.60937 -0.46875,0.21875 -1.0625,0.21875 -0.59375,0 -1.07813,-0.21875 -0.46875,-0.21875 -0.8125,-0.60937 -0.32812,-0.39063 -0.5,-0.90625 -0.17187,-0.51563 -0.17187,-1.125 z m 0.95312,-0.125 v 0.125 q 0,0.42187 0.0937,0.79687 0.10938,0.35938 0.3125,0.65625 0.20313,0.28125 0.5,0.45313 0.29688,0.15625 0.70313,0.15625 0.39062,0 0.6875,-0.15625 0.29687,-0.17188 0.5,-0.45313 0.20312,-0.29687 0.29687,-0.65625 0.10938,-0.375 0.10938,-0.79687 v -0.125 q 0,-0.40625 -0.10938,-0.78125 -0.0937,-0.375 -0.29687,-0.65625 -0.20313,-0.29688 -0.5,-0.45313 -0.29688,-0.17187 -0.70313,-0.17187 -0.39062,0 -0.6875,0.17187 -0.29687,0.15625 -0.5,0.45313 -0.20312,0.28125 -0.3125,0.65625 -0.0937,0.375 -0.0937,0.78125 z m 6.34302,-1.875 v 4.75 h -0.96875 v -5.625 h 0.9375 z m 1.75,-0.90625 v 0.89062 q -0.125,-0.0312 -0.23437,-0.0312 -0.10938,-0.0156 -0.23438,-0.0156 -0.32812,0 -0.59375,0.10937 -0.25,0.10938 -0.4375,0.29688 -0.17187,0.1875 -0.28125,0.45312 -0.0937,0.25 -0.125,0.54688 l -0.26562,0.15625 q 0,-0.5 0.0937,-0.95313 0.10937,-0.45312 0.3125,-0.79687 0.21875,-0.34375 0.54687,-0.53125 0.34375,-0.20313 0.79688,-0.20313 0.0937,0 0.23437,0.0312 0.14063,0.0156 0.1875,0.0469 z m 5.89493,0.0312 v 0.73437 h -3.04688 v -0.73437 z m -2.01563,-1.375 h 0.96875 v 5.60937 q 0,0.28125 0.0781,0.4375 0.0937,0.14063 0.23437,0.1875 0.14063,0.0469 0.29688,0.0469 0.125,0 0.25,-0.0156 0.14062,-0.0312 0.20312,-0.0469 v 0.78125 q -0.10937,0.0312 -0.29687,0.0625 -0.17188,0.0469 -0.4375,0.0469 -0.35938,0 -0.65625,-0.14062 -0.29688,-0.14063 -0.46875,-0.46875 -0.17188,-0.34375 -0.17188,-0.90625 z m 2.78827,4.25 v -0.125 q 0,-0.60938 0.17188,-1.125 0.17187,-0.53125 0.5,-0.90625 0.34375,-0.39063 0.8125,-0.60938 0.48437,-0.21875 1.0625,-0.21875 0.59375,0 1.0625,0.21875 0.48437,0.21875 0.8125,0.60938 0.34375,0.375 0.51562,0.90625 0.1875,0.51562 0.1875,1.125 v 0.125 q 0,0.60937 -0.1875,1.125 -0.17187,0.51562 -0.51562,0.90625 -0.32813,0.39062 -0.79688,0.60937 -0.46875,0.21875 -1.0625,0.21875 -0.59375,0 -1.07812,-0.21875 -0.46875,-0.21875 -0.8125,-0.60937 -0.32813,-0.39063 -0.5,-0.90625 -0.17188,-0.51563 -0.17188,-1.125 z m 0.95313,-0.125 v 0.125 q 0,0.42187 0.0937,0.79687 0.10937,0.35938 0.3125,0.65625 0.20312,0.28125 0.5,0.45313 0.29687,0.15625 0.70312,0.15625 0.39063,0 0.6875,-0.15625 0.29688,-0.17188 0.5,-0.45313 0.20313,-0.29687 0.29688,-0.65625 0.10937,-0.375 0.10937,-0.79687 v -0.125 q 0,-0.40625 -0.10937,-0.78125 -0.0937,-0.375 -0.29688,-0.65625 -0.20312,-0.29688 -0.5,-0.45313 -0.29687,-0.17187 -0.70312,-0.17187 -0.39063,0 -0.6875,0.17187 -0.29688,0.15625 -0.5,0.45313 -0.20313,0.28125 -0.3125,0.65625 -0.0937,0.375 -0.0937,0.78125 z"
         fill-rule="nonzero"
         id="path2821" />
      <path
         fill="#ffffff"
         d="m 359.69464,427.30527 v 5.625 h -0.96875 v -5.625 z m -1.04688,-1.5 q 0,-0.23438 0.14063,-0.39063 0.15625,-0.17187 0.4375,-0.17187 0.26562,0 0.40625,0.17187 0.15625,0.15625 0.15625,0.39063 0,0.21875 -0.15625,0.39062 -0.14063,0.15625 -0.40625,0.15625 -0.28125,0 -0.4375,-0.15625 -0.14063,-0.17187 -0.14063,-0.39062 z m 3.54435,2.60937 v 4.51563 h -0.96875 v -5.625 h 0.92187 z m -0.1875,1.48438 -0.45313,-0.0156 q 0,-0.57812 0.14063,-1.0625 0.15625,-0.5 0.4375,-0.85937 0.29687,-0.35938 0.71875,-0.5625 0.42187,-0.20313 0.98437,-0.20313 0.39063,0 0.71875,0.10938 0.34375,0.10937 0.57813,0.35937 0.25,0.23438 0.39062,0.60938 0.14063,0.375 0.14063,0.90625 v 3.75 h -0.96875 v -3.70313 q 0,-0.4375 -0.15625,-0.70312 -0.14063,-0.26563 -0.42188,-0.39063 -0.26562,-0.125 -0.625,-0.125 -0.42187,0 -0.71875,0.15625 -0.28125,0.14063 -0.45312,0.40625 -0.17188,0.26563 -0.25,0.60938 -0.0625,0.34375 -0.0625,0.71875 z m 3.64062,-0.53125 -0.64062,0.20312 q 0,-0.46875 0.14062,-0.89062 0.15625,-0.42188 0.4375,-0.75 0.28125,-0.34375 0.70313,-0.53125 0.42187,-0.20313 0.95312,-0.20313 0.45313,0 0.79688,0.125 0.35937,0.10938 0.59375,0.35938 0.25,0.25 0.375,0.64062 0.125,0.375 0.125,0.90625 v 3.70313 h -0.96875 v -3.70313 q 0,-0.48437 -0.15625,-0.73437 -0.14063,-0.26563 -0.40625,-0.375 -0.26563,-0.10938 -0.64063,-0.10938 -0.3125,0 -0.5625,0.10938 -0.25,0.10937 -0.42187,0.29687 -0.15625,0.1875 -0.25,0.4375 -0.0781,0.25 -0.0781,0.51563 z m 5.90753,-0.98438 v 6.71875 h -0.96875 v -7.79687 h 0.875 z m 3.78125,1.6875 v 0.10938 q 0,0.60937 -0.14062,1.14062 -0.14063,0.51563 -0.42188,0.90625 -0.28125,0.375 -0.6875,0.59375 -0.40625,0.21875 -0.9375,0.21875 -0.53125,0 -0.9375,-0.17187 -0.40625,-0.1875 -0.70312,-0.51563 -0.28125,-0.34375 -0.45313,-0.8125 -0.17187,-0.48437 -0.23437,-1.07812 v -0.57813 q 0.0625,-0.625 0.23437,-1.10937 0.17188,-0.5 0.45313,-0.84375 0.29687,-0.35938 0.6875,-0.54688 0.40625,-0.1875 0.9375,-0.1875 0.53125,0 0.9375,0.20313 0.42187,0.20312 0.70312,0.59375 0.28125,0.375 0.42188,0.90625 0.14062,0.53125 0.14062,1.17187 z m -0.96875,0.10938 v -0.10938 q 0,-0.42187 -0.0937,-0.79687 -0.0781,-0.375 -0.26562,-0.65625 -0.1875,-0.28125 -0.46875,-0.4375 -0.28125,-0.17188 -0.6875,-0.17188 -0.35938,0 -0.625,0.125 -0.26563,0.125 -0.45313,0.34375 -0.1875,0.20313 -0.3125,0.46875 -0.10937,0.26563 -0.17187,0.5625 v 1.34375 q 0.10937,0.35938 0.29687,0.6875 0.1875,0.3125 0.5,0.51563 0.3125,0.1875 0.78125,0.1875 0.39063,0 0.67188,-0.15625 0.28125,-0.17188 0.46875,-0.45313 0.1875,-0.29687 0.26562,-0.65625 0.0937,-0.375 0.0937,-0.79687 z m 3.17124,-2 v 4.75 h -0.96875 v -5.625 h 0.9375 z m 1.75,-0.90625 v 0.89062 q -0.125,-0.0312 -0.23438,-0.0312 -0.10937,-0.0156 -0.23437,-0.0156 -0.32813,0 -0.59375,0.10937 -0.25,0.10938 -0.4375,0.29688 -0.17188,0.1875 -0.28125,0.45312 -0.0937,0.25 -0.125,0.54688 l -0.26563,0.15625 q 0,-0.5 0.0937,-0.95313 0.10938,-0.45312 0.3125,-0.79687 0.21875,-0.34375 0.54688,-0.53125 0.34375,-0.20313 0.79687,-0.20313 0.0937,0 0.23438,0.0312 0.14062,0.0156 0.1875,0.0469 z m 0.53814,2.90625 v -0.125 q 0,-0.60938 0.17188,-1.125 0.17187,-0.53125 0.5,-0.90625 0.34375,-0.39063 0.8125,-0.60938 0.48437,-0.21875 1.0625,-0.21875 0.59375,0 1.0625,0.21875 0.48437,0.21875 0.8125,0.60938 0.34375,0.375 0.51562,0.90625 0.1875,0.51562 0.1875,1.125 v 0.125 q 0,0.60937 -0.1875,1.125 -0.17187,0.51562 -0.51562,0.90625 -0.32813,0.39062 -0.79688,0.60937 -0.46875,0.21875 -1.0625,0.21875 -0.59375,0 -1.07812,-0.21875 -0.46875,-0.21875 -0.8125,-0.60937 -0.32813,-0.39063 -0.5,-0.90625 -0.17188,-0.51563 -0.17188,-1.125 z m 0.95313,-0.125 v 0.125 q 0,0.42187 0.0937,0.79687 0.10937,0.35938 0.3125,0.65625 0.20312,0.28125 0.5,0.45313 0.29687,0.15625 0.70312,0.15625 0.39063,0 0.6875,-0.15625 0.29688,-0.17188 0.5,-0.45313 0.20313,-0.29687 0.29688,-0.65625 0.10937,-0.375 0.10937,-0.79687 v -0.125 q 0,-0.40625 -0.10937,-0.78125 -0.0937,-0.375 -0.29688,-0.65625 -0.20312,-0.29688 -0.5,-0.45313 -0.29687,-0.17187 -0.70312,-0.17187 -0.39063,0 -0.6875,0.17187 -0.29688,0.15625 -0.5,0.45313 -0.20313,0.28125 -0.3125,0.65625 -0.0937,0.375 -0.0937,0.78125 z m 7.01489,2 1.53125,-4.75 h 0.98438 l -2.03125,5.625 h -0.64063 z m -1.29687,-4.75 1.59375,4.78125 0.10937,0.84375 h -0.64062 l -2.04688,-5.625 z m 7.00015,5.73437 q -0.57813,0 -1.0625,-0.20312 -0.46875,-0.20313 -0.8125,-0.5625 -0.34375,-0.375 -0.53125,-0.875 -0.17188,-0.5 -0.17188,-1.09375 v -0.20313 q 0,-0.6875 0.20313,-1.21875 0.20312,-0.54687 0.54687,-0.92187 0.35938,-0.375 0.79688,-0.5625 0.4375,-0.20313 0.90625,-0.20313 0.60937,0 1.04687,0.21875 0.4375,0.20313 0.71875,0.57813 0.28125,0.35937 0.42188,0.875 0.14062,0.5 0.14062,1.09375 v 0.42187 h -4.20312 v -0.78125 h 3.23437 v -0.0781 q -0.0156,-0.375 -0.15625,-0.71875 -0.125,-0.35938 -0.42187,-0.57813 -0.28125,-0.23437 -0.78125,-0.23437 -0.3125,0 -0.59375,0.14062 -0.28125,0.125 -0.48438,0.40625 -0.1875,0.26563 -0.29687,0.65625 -0.10938,0.39063 -0.10938,0.90625 v 0.20313 q 0,0.40625 0.10938,0.76562 0.10937,0.34375 0.32812,0.60938 0.21875,0.26562 0.51563,0.42187 0.3125,0.14063 0.71875,0.14063 0.5,0 0.85937,-0.20313 0.35938,-0.20312 0.625,-0.5625 l 0.57813,0.46875 q -0.1875,0.28125 -0.46875,0.53125 -0.28125,0.25 -0.6875,0.40625 -0.40625,0.15625 -0.96875,0.15625 z m 8.32523,-5.73437 v 0.73437 h -3.04688 v -0.73437 z m -2.01563,-1.375 h 0.96875 v 5.60937 q 0,0.28125 0.0781,0.4375 0.0937,0.14063 0.23437,0.1875 0.14063,0.0469 0.29688,0.0469 0.125,0 0.25,-0.0156 0.14062,-0.0312 0.20312,-0.0469 v 0.78125 q -0.10937,0.0312 -0.29687,0.0625 -0.17188,0.0469 -0.4375,0.0469 -0.35938,0 -0.65625,-0.14062 -0.29688,-0.14063 -0.46875,-0.46875 -0.17188,-0.34375 -0.17188,-0.90625 z m 4.11118,-1 v 8 h -0.96875 v -8 z m -0.23438,4.96875 -0.40625,-0.0156 q 0.0156,-0.57812 0.17188,-1.0625 0.17187,-0.5 0.46875,-0.85937 0.3125,-0.35938 0.71875,-0.5625 0.42187,-0.20313 0.9375,-0.20313 0.40625,0 0.73437,0.10938 0.34375,0.10937 0.57813,0.35937 0.23437,0.25 0.35937,0.64063 0.125,0.375 0.125,0.9375 v 3.6875 h -0.96875 v -3.70313 q 0,-0.4375 -0.125,-0.70312 -0.125,-0.26563 -0.375,-0.39063 -0.25,-0.125 -0.625,-0.125 -0.35937,0 -0.65625,0.15625 -0.28125,0.14063 -0.5,0.40625 -0.20312,0.26563 -0.32812,0.60938 -0.10938,0.34375 -0.10938,0.71875 z m 7.46301,3.14062 q -0.57812,0 -1.0625,-0.20312 -0.46875,-0.20313 -0.8125,-0.5625 -0.34375,-0.375 -0.53125,-0.875 -0.17187,-0.5 -0.17187,-1.09375 v -0.20313 q 0,-0.6875 0.20312,-1.21875 0.20313,-0.54687 0.54688,-0.92187 0.35937,-0.375 0.79687,-0.5625 0.4375,-0.20313 0.90625,-0.20313 0.60938,0 1.04688,0.21875 0.4375,0.20313 0.71875,0.57813 0.28125,0.35937 0.42187,0.875 0.14063,0.5 0.14063,1.09375 v 0.42187 h -4.20313 v -0.78125 h 3.23438 v -0.0781 q -0.0156,-0.375 -0.15625,-0.71875 -0.125,-0.35938 -0.42188,-0.57813 -0.28125,-0.23437 -0.78125,-0.23437 -0.3125,0 -0.59375,0.14062 -0.28125,0.125 -0.48437,0.40625 -0.1875,0.26563 -0.29688,0.65625 -0.10937,0.39063 -0.10937,0.90625 v 0.20313 q 0,0.40625 0.10937,0.76562 0.10938,0.34375 0.32813,0.60938 0.21875,0.26562 0.51562,0.42187 0.3125,0.14063 0.71875,0.14063 0.5,0 0.85938,-0.20313 0.35937,-0.20312 0.625,-0.5625 l 0.57812,0.46875 q -0.1875,0.28125 -0.46875,0.53125 -0.28125,0.25 -0.6875,0.40625 -0.40625,0.15625 -0.96875,0.15625 z"
         fill-rule="nonzero"
         id="path2823" />
      <path
         fill="#ffffff"
         d="m 377.15,445.24277 q 0.34375,0 0.625,-0.14063 0.29687,-0.14062 0.48437,-0.39062 0.1875,-0.25 0.21875,-0.5625 H 379.4 q -0.0312,0.5 -0.34375,0.9375 -0.3125,0.42187 -0.8125,0.6875 -0.5,0.26562 -1.09375,0.26562 -0.625,0 -1.10938,-0.21875 -0.46875,-0.23437 -0.78125,-0.625 -0.29687,-0.39062 -0.45312,-0.89062 -0.15625,-0.51563 -0.15625,-1.07813 v -0.21875 q 0,-0.5625 0.15625,-1.0625 0.15625,-0.51562 0.45312,-0.90625 0.3125,-0.39062 0.78125,-0.60937 0.48438,-0.23438 1.10938,-0.23438 0.65625,0 1.15625,0.26563 0.5,0.26562 0.78125,0.73437 0.28125,0.45313 0.3125,1.04688 h -0.92188 q -0.0312,-0.35938 -0.20312,-0.64063 -0.15625,-0.28125 -0.45313,-0.4375 -0.28125,-0.17187 -0.67187,-0.17187 -0.4375,0 -0.73438,0.17187 -0.29687,0.17188 -0.48437,0.46875 -0.17188,0.29688 -0.25,0.65625 -0.0625,0.34375 -0.0625,0.71875 v 0.21875 q 0,0.35938 0.0625,0.71875 0.0781,0.35938 0.25,0.65625 0.17187,0.29688 0.46875,0.46875 0.3125,0.17188 0.75,0.17188 z m 3.07788,-2.0625 v -0.125 q 0,-0.60938 0.17188,-1.125 0.17187,-0.53125 0.5,-0.90625 0.34375,-0.39063 0.8125,-0.60938 0.48437,-0.21875 1.0625,-0.21875 0.59375,0 1.0625,0.21875 0.48437,0.21875 0.8125,0.60938 0.34375,0.375 0.51562,0.90625 0.1875,0.51562 0.1875,1.125 v 0.125 q 0,0.60937 -0.1875,1.125 -0.17187,0.51562 -0.51562,0.90625 -0.32813,0.39062 -0.79688,0.60937 -0.46875,0.21875 -1.0625,0.21875 -0.59375,0 -1.07812,-0.21875 -0.46875,-0.21875 -0.8125,-0.60937 -0.32813,-0.39063 -0.5,-0.90625 -0.17188,-0.51563 -0.17188,-1.125 z m 0.95313,-0.125 v 0.125 q 0,0.42187 0.0937,0.79687 0.10937,0.35938 0.3125,0.65625 0.20312,0.28125 0.5,0.45313 0.29687,0.15625 0.70312,0.15625 0.39063,0 0.6875,-0.15625 0.29688,-0.17188 0.5,-0.45313 0.20313,-0.29687 0.29688,-0.65625 0.10937,-0.375 0.10937,-0.79687 v -0.125 q 0,-0.40625 -0.10937,-0.78125 -0.0937,-0.375 -0.29688,-0.65625 -0.20312,-0.29688 -0.5,-0.45313 -0.29687,-0.17187 -0.70312,-0.17187 -0.39063,0 -0.6875,0.17187 -0.29688,0.15625 -0.5,0.45313 -0.20313,0.28125 -0.3125,0.65625 -0.0937,0.375 -0.0937,0.78125 z m 8.92114,1.78125 v -6.90625 h 0.96875 v 8 h -0.89063 z m -3.78125,-1.65625 v -0.10938 q 0,-0.64062 0.15625,-1.17187 0.15625,-0.53125 0.45312,-0.90625 0.29688,-0.39063 0.70313,-0.59375 0.40625,-0.20313 0.90625,-0.20313 0.53125,0 0.92187,0.1875 0.40625,0.1875 0.6875,0.54688 0.28125,0.34375 0.4375,0.84375 0.15625,0.48437 0.21875,1.10937 v 0.46875 q -0.0469,0.625 -0.21875,1.125 -0.15625,0.48438 -0.4375,0.84375 -0.28125,0.34375 -0.6875,0.53125 -0.39062,0.1875 -0.9375,0.1875 -0.48437,0 -0.89062,-0.21875 -0.40625,-0.21875 -0.70313,-0.59375 -0.29687,-0.39062 -0.45312,-0.90625 -0.15625,-0.53125 -0.15625,-1.14062 z m 0.96875,-0.10938 v 0.10938 q 0,0.42187 0.0781,0.79687 0.0937,0.35938 0.26563,0.64063 0.1875,0.28125 0.46875,0.4375 0.28125,0.15625 0.67187,0.15625 0.46875,0 0.78125,-0.20313 0.3125,-0.20312 0.5,-0.53125 0.1875,-0.32812 0.29688,-0.71875 v -1.25 q -0.0625,-0.29687 -0.1875,-0.5625 -0.10938,-0.26562 -0.29688,-0.46875 -0.1875,-0.21875 -0.45312,-0.34375 -0.26563,-0.125 -0.64063,-0.125 -0.39062,0 -0.67187,0.17188 -0.28125,0.15625 -0.46875,0.4375 -0.17188,0.28125 -0.26563,0.65625 -0.0781,0.375 -0.0781,0.79687 z m 7.60351,2.96875 q -0.57812,0 -1.0625,-0.20312 -0.46875,-0.20313 -0.8125,-0.5625 -0.34375,-0.375 -0.53125,-0.875 -0.17187,-0.5 -0.17187,-1.09375 v -0.20313 q 0,-0.6875 0.20312,-1.21875 0.20313,-0.54687 0.54688,-0.92187 0.35937,-0.375 0.79687,-0.5625 0.4375,-0.20313 0.90625,-0.20313 0.60938,0 1.04688,0.21875 0.4375,0.20313 0.71875,0.57813 0.28125,0.35937 0.42187,0.875 0.14063,0.5 0.14063,1.09375 v 0.42187 h -4.20313 v -0.78125 h 3.23438 v -0.0781 q -0.0156,-0.375 -0.15625,-0.71875 -0.125,-0.35938 -0.42188,-0.57813 -0.28125,-0.23437 -0.78125,-0.23437 -0.3125,0 -0.59375,0.14062 -0.28125,0.125 -0.48437,0.40625 -0.1875,0.26563 -0.29688,0.65625 -0.10937,0.39063 -0.10937,0.90625 v 0.20313 q 0,0.40625 0.10937,0.76562 0.10938,0.34375 0.32813,0.60938 0.21875,0.26562 0.51562,0.42187 0.3125,0.14063 0.71875,0.14063 0.5,0 0.85938,-0.20313 0.35937,-0.20312 0.625,-0.5625 l 0.57812,0.46875 q -0.1875,0.28125 -0.46875,0.53125 -0.28125,0.25 -0.6875,0.40625 -0.40625,0.15625 -0.96875,0.15625 z"
         fill-rule="nonzero"
         id="path2825" />
    </g>
    <defs
       id="defs2845">
      <filter
         id="shadowFilter-g1fdf626aaf9_0_0.9"
         filterUnits="userSpaceOnUse">
        <feGaussianBlur
           in="SourceAlpha"
           stdDeviation="2.0"
           result="blur"
           id="feGaussianBlur2832" />
        <feComponentTransfer
           in="blur"
           color-interpolation-filters="sRGB"
           id="feComponentTransfer2842">
          <feFuncR
             type="linear"
             slope="0"
             intercept="0.0"
             id="feFuncR2834" />
          <feFuncG
             type="linear"
             slope="0"
             intercept="0.0"
             id="feFuncG2836" />
          <feFuncB
             type="linear"
             slope="0"
             intercept="0.0"
             id="feFuncB2838" />
          <feFuncA
             type="linear"
             slope="0.5"
             intercept="0"
             id="feFuncA2840" />
        </feComponentTransfer>
      </filter>
    </defs>
    <g
       id="g1fdf626aaf9_0_0.9">
      <path
         fill="#1c4587"
         d="m 341.84064,382.05283 h 87.96439 c 0.82385,0 1.61398,0.32727 2.19656,0.90985 0.58255,0.58255 0.90982,1.37268 0.90982,2.19653 v 15.53156 c 0,4.6e-4 -3.4e-4,7.9e-4 -7.9e-4,7.9e-4 l -94.17636,-7.9e-4 c -4.6e-4,0 -8e-4,-3.4e-4 -8e-4,-7.6e-4 l 8e-4,-15.5308 c 0,-1.7156 1.39074,-3.10638 3.10638,-3.10638 z"
         fill-rule="evenodd"
         id="path2847" />
      <path
         fill="#ffffff"
         d="m 366.5145,387.9886 h 2.51562 q 0.84375,0 1.4375,0.26563 0.59375,0.25 0.90625,0.76562 0.3125,0.5 0.3125,1.25 0,0.51563 -0.21875,0.95313 -0.20312,0.42187 -0.60937,0.71875 -0.39063,0.29687 -0.9375,0.45312 l -0.28125,0.10938 h -2.34375 l -0.0156,-0.82813 h 1.78125 q 0.53125,0 0.89063,-0.1875 0.35937,-0.1875 0.54687,-0.5 0.1875,-0.32812 0.1875,-0.71875 0,-0.4375 -0.17187,-0.76562 -0.17188,-0.32813 -0.54688,-0.5 -0.35937,-0.1875 -0.9375,-0.1875 h -1.5 v 6.75 h -1.01562 z m 4.4375,7.57813 -1.84375,-3.4375 h 1.04687 l 1.85938,3.375 v 0.0625 z m 4.3165,0.10937 q -0.57813,0 -1.0625,-0.20312 -0.46875,-0.20313 -0.8125,-0.5625 -0.34375,-0.375 -0.53125,-0.875 -0.17188,-0.5 -0.17188,-1.09375 v -0.20313 q 0,-0.6875 0.20313,-1.21875 0.20312,-0.54687 0.54687,-0.92187 0.35938,-0.375 0.79688,-0.5625 0.4375,-0.20313 0.90625,-0.20313 0.60937,0 1.04687,0.21875 0.4375,0.20313 0.71875,0.57813 0.28125,0.35937 0.42188,0.875 0.14062,0.5 0.14062,1.09375 v 0.42187 h -4.20312 v -0.78125 h 3.23437 v -0.0781 q -0.0156,-0.375 -0.15625,-0.71875 -0.125,-0.35938 -0.42187,-0.57813 -0.28125,-0.23437 -0.78125,-0.23437 -0.3125,0 -0.59375,0.14062 -0.28125,0.125 -0.48438,0.40625 -0.1875,0.26563 -0.29687,0.65625 -0.10938,0.39063 -0.10938,0.90625 v 0.20313 q 0,0.40625 0.10938,0.76562 0.10937,0.34375 0.32812,0.60938 0.21875,0.26562 0.51563,0.42187 0.3125,0.14063 0.71875,0.14063 0.5,0 0.85937,-0.20313 0.35938,-0.20312 0.625,-0.5625 l 0.57813,0.46875 q -0.1875,0.28125 -0.46875,0.53125 -0.28125,0.25 -0.6875,0.40625 -0.40625,0.15625 -0.96875,0.15625 z m 4.7601,-0.10937 h -0.96875 v -6.21875 q 0,-0.60938 0.21875,-1.03125 0.23437,-0.42188 0.64062,-0.625 0.42188,-0.21875 0.98438,-0.21875 0.17187,0 0.34375,0.0156 0.17187,0.0156 0.32812,0.0625 l -0.0469,0.78125 q -0.10938,-0.0312 -0.25,-0.0312 -0.14063,-0.0156 -0.28125,-0.0156 -0.29688,0 -0.51563,0.125 -0.21875,0.125 -0.34375,0.35937 -0.10937,0.23438 -0.10937,0.57813 z m 1.1875,-5.625 v 0.73437 h -3.04688 v -0.73437 z m 4.39221,4.65625 v -2.89063 q 0,-0.32812 -0.14062,-0.57812 -0.125,-0.25 -0.39063,-0.375 -0.26562,-0.14063 -0.65625,-0.14063 -0.35937,0 -0.64062,0.125 -0.26563,0.125 -0.42188,0.32813 -0.14062,0.20312 -0.14062,0.4375 h -0.96875 q 0,-0.3125 0.15625,-0.60938 0.15625,-0.29687 0.45312,-0.53125 0.29688,-0.25 0.70313,-0.39062 0.42187,-0.14063 0.92187,-0.14063 0.60938,0 1.07813,0.21875 0.48437,0.20313 0.75,0.625 0.26562,0.40625 0.26562,1.04688 v 2.60937 q 0,0.28125 0.0469,0.60938 0.0469,0.3125 0.15625,0.54687 v 0.0781 h -1.01563 q -0.0625,-0.17188 -0.10937,-0.4375 -0.0469,-0.28125 -0.0469,-0.53125 z m 0.17188,-2.4375 0.0156,0.67187 h -0.98437 q -0.40625,0 -0.73438,0.0625 -0.3125,0.0625 -0.53125,0.20313 -0.21875,0.125 -0.34375,0.32812 -0.10937,0.1875 -0.10937,0.4375 0,0.26563 0.125,0.48438 0.125,0.21875 0.35937,0.35937 0.25,0.125 0.59375,0.125 0.4375,0 0.78125,-0.1875 0.34375,-0.1875 0.53125,-0.45312 0.20313,-0.28125 0.21875,-0.53125 l 0.42188,0.45312 q -0.0469,0.21875 -0.20313,0.48438 -0.15625,0.26562 -0.4375,0.51562 -0.26562,0.23438 -0.64062,0.40625 -0.35938,0.15625 -0.8125,0.15625 -0.5625,0 -1,-0.21875 -0.42188,-0.23437 -0.67188,-0.60937 -0.23437,-0.375 -0.23437,-0.84375 0,-0.45313 0.17187,-0.79688 0.1875,-0.34375 0.51563,-0.57812 0.34375,-0.23438 0.8125,-0.34375 0.46875,-0.125 1.03125,-0.125 z m 4.56204,2.71875 q 0.34375,0 0.625,-0.14063 0.29687,-0.14062 0.48437,-0.39062 0.1875,-0.25 0.21875,-0.5625 h 0.92188 q -0.0312,0.5 -0.34375,0.9375 -0.3125,0.42187 -0.8125,0.6875 -0.5,0.26562 -1.09375,0.26562 -0.625,0 -1.10938,-0.21875 -0.46875,-0.23437 -0.78125,-0.625 -0.29687,-0.39062 -0.45312,-0.89062 -0.15625,-0.51563 -0.15625,-1.07813 v -0.21875 q 0,-0.5625 0.15625,-1.0625 0.15625,-0.51562 0.45312,-0.90625 0.3125,-0.39062 0.78125,-0.60937 0.48438,-0.23438 1.10938,-0.23438 0.65625,0 1.15625,0.26563 0.5,0.26562 0.78125,0.73437 0.28125,0.45313 0.3125,1.04688 h -0.92188 q -0.0312,-0.35938 -0.20312,-0.64063 -0.15625,-0.28125 -0.45313,-0.4375 -0.28125,-0.17187 -0.67187,-0.17187 -0.4375,0 -0.73438,0.17187 -0.29687,0.17188 -0.48437,0.46875 -0.17188,0.29688 -0.25,0.65625 -0.0625,0.34375 -0.0625,0.71875 v 0.21875 q 0,0.35938 0.0625,0.71875 0.0781,0.35938 0.25,0.65625 0.17187,0.29688 0.46875,0.46875 0.3125,0.17188 0.75,0.17188 z m 5.68725,-4.9375 v 0.73437 h -3.04687 v -0.73437 z m -2.01562,-1.375 h 0.96875 v 5.60937 q 0,0.28125 0.0781,0.4375 0.0937,0.14063 0.23438,0.1875 0.14062,0.0469 0.29687,0.0469 0.125,0 0.25,-0.0156 0.14063,-0.0312 0.20313,-0.0469 v 0.78125 q -0.10938,0.0312 -0.29688,0.0625 -0.17187,0.0469 -0.4375,0.0469 -0.35937,0 -0.65625,-0.14062 -0.29687,-0.14063 -0.46875,-0.46875 -0.17187,-0.34375 -0.17187,-0.90625 z m 2.78824,4.25 v -0.125 q 0,-0.60938 0.17187,-1.125 0.17188,-0.53125 0.5,-0.90625 0.34375,-0.39063 0.8125,-0.60938 0.48438,-0.21875 1.0625,-0.21875 0.59375,0 1.0625,0.21875 0.48438,0.21875 0.8125,0.60938 0.34375,0.375 0.51563,0.90625 0.1875,0.51562 0.1875,1.125 v 0.125 q 0,0.60937 -0.1875,1.125 -0.17188,0.51562 -0.51563,0.90625 -0.32812,0.39062 -0.79687,0.60937 -0.46875,0.21875 -1.0625,0.21875 -0.59375,0 -1.07813,-0.21875 -0.46875,-0.21875 -0.8125,-0.60937 -0.32812,-0.39063 -0.5,-0.90625 -0.17187,-0.51563 -0.17187,-1.125 z m 0.95312,-0.125 v 0.125 q 0,0.42187 0.0937,0.79687 0.10938,0.35938 0.3125,0.65625 0.20313,0.28125 0.5,0.45313 0.29688,0.15625 0.70313,0.15625 0.39062,0 0.6875,-0.15625 0.29687,-0.17188 0.5,-0.45313 0.20312,-0.29687 0.29687,-0.65625 0.10938,-0.375 0.10938,-0.79687 v -0.125 q 0,-0.40625 -0.10938,-0.78125 -0.0937,-0.375 -0.29687,-0.65625 -0.20313,-0.29688 -0.5,-0.45313 -0.29688,-0.17187 -0.70313,-0.17187 -0.39062,0 -0.6875,0.17187 -0.29687,0.15625 -0.5,0.45313 -0.20312,0.28125 -0.3125,0.65625 -0.0937,0.375 -0.0937,0.78125 z m 6.34302,-1.875 v 4.75 h -0.96875 v -5.625 h 0.9375 z m 1.75,-0.90625 v 0.89062 q -0.125,-0.0312 -0.23437,-0.0312 -0.10938,-0.0156 -0.23438,-0.0156 -0.32812,0 -0.59375,0.10937 -0.25,0.10938 -0.4375,0.29688 -0.17187,0.1875 -0.28125,0.45312 -0.0937,0.25 -0.125,0.54688 l -0.26562,0.15625 q 0,-0.5 0.0937,-0.95313 0.10937,-0.45312 0.3125,-0.79687 0.21875,-0.34375 0.54687,-0.53125 0.34375,-0.20313 0.79688,-0.20313 0.0937,0 0.23437,0.0312 0.14063,0.0156 0.1875,0.0469 z"
         fill-rule="nonzero"
         id="path2849" />
    </g>
  </g>
</svg>
